<svg xmlns="http://www.w3.org/2000/svg" viewBox="0 0 686.53 439.74"><defs><style>.cls-1{fill:#2272cf;}.cls-2{fill:#2249af;}.cls-3{fill:#0e3aa3;}.cls-4{fill:#0e1d8d;}.cls-5{fill:#ff563d;}.cls-6{fill:#b12413;}.cls-7{fill:#131637;}.cls-8{fill:#fff;}.cls-9{fill:#e7ab2b;}.cls-10{fill:#d7e6f7;}.cls-11{fill:#95afd1;}.cls-12{fill:#da8928;}.cls-13{fill:#eecd5a;}.cls-14{opacity:0.3;}.cls-15{fill:#f8f9fa;}.cls-16{opacity:0.2;}.cls-17{fill:#ffa389;}.cls-18{fill:#21181e;}.cls-19{fill:#564c54;}.cls-20{fill:#ff8072;}</style></defs><g id="Capa_2" data-name="Capa 2"><g id="OBJECTS"><path class="cls-1" d="M337.63,149.48a166.55,166.55,0,0,1-74.28-30.23C230.53,95.47,161.87,55,96.36,75.16,6,103,5.61,183.38,29.15,227.07S219.57,398.68,435.92,378.33C629.53,360.11,667.25,151.61,564,113.88,474.44,81.16,443.89,164.54,337.63,149.48Z"/><path class="cls-1" d="M205.16,65.88A10.24,10.24,0,1,1,196.84,54,10.23,10.23,0,0,1,205.16,65.88Z"/><path class="cls-1" d="M600.41,110.16a7.34,7.34,0,1,1-7.34-7.34A7.33,7.33,0,0,1,600.41,110.16Z"/><path class="cls-1" d="M179.57,56.83a6.18,6.18,0,1,1-5-7.15A6.17,6.17,0,0,1,179.57,56.83Z"/><path class="cls-1" d="M19.89,227.21a7.34,7.34,0,1,1-7.34-7.34A7.34,7.34,0,0,1,19.89,227.21Z"/><path class="cls-2" d="M562.27,358.31l2.63,1.92,1.4,1,4,2.88s83-32.29,76.29-69.49c-2.07-11.46-18-15.88-37.29,14C591.39,336.38,562.27,358.31,562.27,358.31Z"/><path class="cls-3" d="M564.9,360.23l1.4,1c17.72-9.72,33.22-22.94,43.46-32.73a244.5,244.5,0,0,0,19.8-21.15.78.78,0,0,0-.12-1.1.79.79,0,0,0-1.1.12,240.82,240.82,0,0,1-19.68,21C598.37,337.23,582.73,350.56,564.9,360.23Z"/><path class="cls-1" d="M540.44,371.47l2.67,3.89,1.42,2.07,4,5.84s128.94-3.85,137.75-57.87c2.71-16.63-16.89-30.38-57.68,1.09C590.8,355.65,540.44,371.47,540.44,371.47Z"/><path class="cls-2" d="M543.11,375.36l1.42,2.07c28.87-4.69,56.43-15.23,75.14-23.63a351,351,0,0,0,37.25-19.26,1.13,1.13,0,1,0-1.19-1.92,351.53,351.53,0,0,1-37,19.14C599.9,360.19,572.12,370.81,543.11,375.36Z"/><path class="cls-1" d="M580.56,28.58a5.1,5.1,0,0,1-5.07,5.07H467.09A5.06,5.06,0,0,1,463.51,25a5,5,0,0,1,3.58-1.49h5.12a13.22,13.22,0,0,1,21.51-4.1,18.36,18.36,0,0,1,21.15-8.26,21,21,0,0,1,38.75,4.23,13.21,13.21,0,0,1,18.61,8.13h3.26A5.09,5.09,0,0,1,580.56,28.58Z"/><path class="cls-1" d="M136.49,24.42a3.27,3.27,0,0,1-1,2.32,3.22,3.22,0,0,1-2.31,1H63.12a3.28,3.28,0,0,1-3.27-3.28,3.28,3.28,0,0,1,3.27-3.27h3.31A8.55,8.55,0,0,1,80.34,18.5,11.87,11.87,0,0,1,94,13.15a13.57,13.57,0,0,1,25.06,2.74,8.55,8.55,0,0,1,12,5.26h2.11A3.28,3.28,0,0,1,136.49,24.42Z"/><path class="cls-1" d="M664.51,79.21a3.29,3.29,0,0,1-3.28,3.28H591.14a3.29,3.29,0,0,1-3.28-3.28,3.31,3.31,0,0,1,3.28-3.28h3.31a8.55,8.55,0,0,1,13.91-2.64A11.86,11.86,0,0,1,622,67.94a13.57,13.57,0,0,1,25.06,2.74,8.56,8.56,0,0,1,12,5.25h2.11A3.29,3.29,0,0,1,664.51,79.21Z"/><path class="cls-1" d="M400.28,52.7a4,4,0,0,1-4,4H310.74a4,4,0,0,1-4-4,4,4,0,0,1,4-4h4a10.43,10.43,0,0,1,17-3.23,14.45,14.45,0,0,1,12.48-7.15,14.13,14.13,0,0,1,4.2.63A16.56,16.56,0,0,1,379,42.29a10.41,10.41,0,0,1,14.68,6.41h2.57A4,4,0,0,1,400.28,52.7Z"/><path class="cls-3" d="M329.6,137.19l-2.71.94-1.43.49L321.38,140S259.78,91.57,275,62c4.68-9.11,19.22-8.75,27.78,21.36C310.72,111.27,329.6,137.19,329.6,137.19Z"/><path class="cls-4" d="M326.89,138.13l-1.43.49C313,125.9,303.39,110.8,297.28,99.94A213.73,213.73,0,0,1,286,77.07a.69.69,0,0,1,.38-.89.69.69,0,0,1,.9.38,211.11,211.11,0,0,0,11.17,22.73C304.63,110.2,314.37,125.42,326.89,138.13Z"/><path class="cls-2" d="M333.68,145.73c-13.17-10.32-35.55-29.55-51.74-52.32C255.68,56.47,235.67,63,233.68,77.7c-5.19,38.49,63.76,69.55,90.61,80.12Q329.14,151.9,333.68,145.73Z"/><path class="cls-3" d="M330.08,150.52C311.49,140,295.2,127.16,283.8,117.21a304.36,304.36,0,0,1-26.25-25.6,1,1,0,0,0-1.41-.09,1,1,0,0,0-.09,1.4,309.06,309.06,0,0,0,26.41,25.77c11.43,10,27.75,22.84,46.39,33.42Z"/><path class="cls-2" d="M.86,329.79c5.11,14.74,20,13.61,20.24,25.75s8.26,21,18.64,18.32,17.86-5.26,23.18,6.59,20.83,17.2,26.44,7.41c1.4-2.44,2.9-5.08,4.38-7.67.4-.71.8-1.42,1.2-2.11l.27-.48a23.54,23.54,0,0,0-6.53-30.76C84.74,344,80.1,342.53,75,344.28c-16,5.49-10.88-11.06-20.83-17.51-11.47-7.44-20.6,2-28.51-4.45C14.65,313.39-4.25,315.05.86,329.79Z"/><path class="cls-3" d="M20.47,335.39l73.27,44.8c.4-.71.8-1.42,1.2-2.11L21.73,333.32a1.21,1.21,0,0,0-1.26,2.07Z"/><path class="cls-1" d="M23.61,261.48c-2.42,19.17,14.74,26.08,8.33,39.68S29.57,329,42.56,331.71s22.7,4,22.1,20,13.67,30.51,25.27,22.72c2.88-1.94,6-4,9.06-6.11l2.49-1.68.57-.38a29.14,29.14,0,0,0,9.64-37.71c-2.83-5.3-7.16-9.49-13.78-10.34-20.74-2.68-6-18.24-13.5-30.87-8.63-14.54-23.93-9.11-29.18-20.58C47.91,250.85,26,242.32,23.61,261.48Z"/><path class="cls-2" d="M42.29,278.45,99,368.36l2.49-1.68L44.83,276.85a1.5,1.5,0,0,0-2.54,1.6Z"/><path class="cls-4" d="M459.42,316.07c-10.2-19.92-17.7-37.53-22.31-52.45-6-19.48-7.09-34.39-3.18-44.3a1.28,1.28,0,1,1,2.38.93c-6.84,17.34,2.85,51.81,28,99.76Z"/><path class="cls-3" d="M433.19,245.81s-9.83,4.21-16.56-13.37C416.63,232.44,433.5,230.26,433.19,245.81Z"/><path class="cls-3" d="M436.19,255.05s-4.75-9.59,12.42-17.28C448.61,237.77,451.73,254.5,436.19,255.05Z"/><path class="cls-3" d="M433.28,227.59s-7.68-7.45,5.94-20.44C439.22,207.15,447.74,221.89,433.28,227.59Z"/><path class="cls-3" d="M441.66,273.82s-7.83,7.29-20.11-7C421.55,266.85,436.7,259.09,441.66,273.82Z"/><path class="cls-3" d="M446.14,282.77s-6.34-8.61,9.24-19.17C455.38,263.6,461.35,279.54,446.14,282.77Z"/><path class="cls-3" d="M451.06,295.64s-7.69,7.43-20.23-6.59C430.83,289.05,445.82,281,451.06,295.64Z"/><rect class="cls-2" x="268.04" y="198.95" width="54.59" height="211.86"/><rect class="cls-2" x="357.26" y="268.44" width="54.59" height="142.38"/><rect class="cls-2" x="178.81" y="121.61" width="54.59" height="289.2"/><rect class="cls-2" x="90.64" y="58.28" width="54.59" height="352.54"/><path class="cls-3" d="M145.24,187.5V410.82H90.64V175.51C101.47,174,120.5,174.54,145.24,187.5Z"/><path class="cls-3" d="M188.26,219.45a246,246,0,0,0,45.15,33.65V410.82h-54.6v-200Q183.46,214.85,188.26,219.45Z"/><path class="cls-3" d="M268,270.76A323.22,323.22,0,0,0,322.63,289V410.82H268Z"/><path class="cls-3" d="M411.86,292.63V410.82h-54.6V294.88C376.59,296.8,395.17,296.22,411.86,292.63Z"/><polygon class="cls-5" points="150.11 151.89 236.38 166.01 223.78 243.06 394.1 270.93 376.05 381.21 537.3 407.59 542.34 376.79 411.9 355.45 429.94 245.16 259.62 217.3 272.23 140.24 155.15 121.09 150.11 151.89"/><polygon class="cls-6" points="175.56 124.43 178.38 156.52 166.62 154.59 172.25 123.89 175.56 124.43"/><polygon class="cls-5" points="161.35 183.31 178.11 91.97 101.24 125.07 161.35 183.31"/><path class="cls-7" d="M32.3,90.23a4.88,4.88,0,1,1-4.88-4.88A4.89,4.89,0,0,1,32.3,90.23Zm-1.53,0a3.35,3.35,0,1,0-3.35,3.35A3.36,3.36,0,0,0,30.77,90.23Z"/><path class="cls-5" d="M52.22,83.65a4.88,4.88,0,1,1-4.88-4.88A4.89,4.89,0,0,1,52.22,83.65Zm-1.53,0A3.35,3.35,0,1,0,47.34,87,3.35,3.35,0,0,0,50.69,83.65Z"/><path class="cls-8" d="M52.84,62.69a.77.77,0,0,0-.76.77v3.37a.77.77,0,1,0,1.53,0V63.46A.77.77,0,0,0,52.84,62.69Z"/><path class="cls-8" d="M52.84,56.78a.77.77,0,0,0-.76.77v3.38a.77.77,0,0,0,1.53,0V57.55A.77.77,0,0,0,52.84,56.78Z"/><path class="cls-8" d="M57.58,61.43h-3a.77.77,0,1,0,0,1.53h3a.77.77,0,1,0,0-1.53Z"/><path class="cls-8" d="M51.14,61.43h-3a.77.77,0,1,0,0,1.53h3a.77.77,0,0,0,0-1.53Z"/><path class="cls-9" d="M32.16,68.1a.76.76,0,0,0-.77.77v3.37a.77.77,0,1,0,1.53,0V68.87A.76.76,0,0,0,32.16,68.1Z"/><path class="cls-9" d="M32.16,62.19a.77.77,0,0,0-.77.77v3.37a.77.77,0,1,0,1.53,0V63A.77.77,0,0,0,32.16,62.19Z"/><path class="cls-9" d="M36.9,66.83h-3a.77.77,0,0,0,0,1.54h3a.77.77,0,0,0,0-1.54Z"/><path class="cls-9" d="M30.45,66.83h-3a.77.77,0,0,0,0,1.54h3a.77.77,0,1,0,0-1.54Z"/><path class="cls-7" d="M631.06,267.18a4.88,4.88,0,1,1-4.88-4.88A4.89,4.89,0,0,1,631.06,267.18Zm-1.53,0a3.35,3.35,0,1,0-3.35,3.35A3.35,3.35,0,0,0,629.53,267.18Z"/><path class="cls-9" d="M651,260.59a4.88,4.88,0,1,1-4.88-4.88A4.89,4.89,0,0,1,651,260.59Zm-1.53,0a3.35,3.35,0,1,0-3.35,3.35A3.36,3.36,0,0,0,649.46,260.59Z"/><path class="cls-8" d="M651.61,239.64a.76.76,0,0,0-.76.77v3.37a.77.77,0,0,0,.76.77.78.78,0,0,0,.77-.77v-3.37A.77.77,0,0,0,651.61,239.64Z"/><path class="cls-8" d="M651.61,233.73a.76.76,0,0,0-.76.77v3.37a.76.76,0,0,0,.76.77.77.77,0,0,0,.77-.77V234.5A.77.77,0,0,0,651.61,233.73Z"/><path class="cls-8" d="M656.35,238.37h-3a.77.77,0,0,0-.77.77.76.76,0,0,0,.77.76h3a.77.77,0,0,0,.77-.76A.78.78,0,0,0,656.35,238.37Z"/><path class="cls-8" d="M649.9,238.37h-3a.77.77,0,0,0-.76.77.76.76,0,0,0,.76.76h3a.76.76,0,0,0,.77-.76A.77.77,0,0,0,649.9,238.37Z"/><path class="cls-5" d="M630.92,245.05a.76.76,0,0,0-.76.76v3.38a.77.77,0,0,0,1.53,0v-3.38A.76.76,0,0,0,630.92,245.05Z"/><path class="cls-5" d="M630.92,239.14a.76.76,0,0,0-.76.76v3.38a.77.77,0,1,0,1.53,0V239.9A.76.76,0,0,0,630.92,239.14Z"/><path class="cls-5" d="M635.66,243.78h-3a.77.77,0,1,0,0,1.53h3a.77.77,0,1,0,0-1.53Z"/><path class="cls-5" d="M629.22,243.78h-3a.77.77,0,0,0,0,1.53h3a.77.77,0,0,0,0-1.53Z"/><path class="cls-9" d="M57.27,195.73l-.13.08A18.45,18.45,0,0,1,31.7,190l-.08-.13a18.45,18.45,0,0,1,5.79-25.44l.13-.08A18.45,18.45,0,0,1,63,170.17l.08.12A18.45,18.45,0,0,1,57.27,195.73Z"/><path class="cls-8" d="M55,176.92c-1.55-1-3.47-.8-5.26-.32-2,.56-3.95,1.49-5,1.45a.77.77,0,0,1-.68-.35c-.31-.52-.13-1.22,1.21-2.08h0l.27-.17A11.35,11.35,0,0,1,50.32,174l.42,0-.16-1.16L50,169.11a12.24,12.24,0,0,0-3.48.65,19,19,0,0,0-2,.78l-.87-1.47-.58-1L39.92,170l1.48,2.5c-3.44,2.75-4,6-2.48,8.63a4.78,4.78,0,0,0,4.65,2.49,18.08,18.08,0,0,0,4.94-1.24c1.49-.5,2.64-.83,3.05-.15s0,1.2-1.57,2.11a11.6,11.6,0,0,1-2.11,1,12.61,12.61,0,0,1-4.05.71l.6,5a10.72,10.72,0,0,0,2.28-.25,18.25,18.25,0,0,0,4.56-1.65l.83,1.39.61,1,3.23-1.92-1.51-2.54c3.18-2.73,3.68-5.94,2.21-8.41A5.07,5.07,0,0,0,55,176.92Z"/><path class="cls-9" d="M437.59,111.09l-.13,0A18.44,18.44,0,0,1,425.4,87.91l0-.14a18.45,18.45,0,0,1,23.14-12.06l.14,0a18.45,18.45,0,0,1,12.06,23.14l0,.14A18.46,18.46,0,0,1,437.59,111.09Z"/><path class="cls-8" d="M450.48,97.2c-.25-1.83-1.64-3.16-3.17-4.21-1.75-1.21-3.69-2-4.32-2.87a.75.75,0,0,1-.18-.75c.19-.57.84-.88,2.36-.42h0l.31.1a11.2,11.2,0,0,1,4.16,2.69l.3.3.77-.87,2.5-2.82a12.24,12.24,0,0,0-2.75-2.23,18.41,18.41,0,0,0-1.87-1l.56-1.62.37-1.07L446,81.22,445,84c-4.33-.84-7.22.84-8.2,3.69a5.16,5.16,0,0,0-.25,2.58A5.11,5.11,0,0,0,438,92.82a18.24,18.24,0,0,0,4.14,3c1.35.81,2.35,1.48,2.09,2.22s-.93.75-2.62.18a12.08,12.08,0,0,1-2.1-1,12.69,12.69,0,0,1-3.16-2.62l-3.4,3.67a9.74,9.74,0,0,0,1.66,1.58,18.25,18.25,0,0,0,4.2,2.41l-.52,1.53-.39,1.14,3.55,1.21,1-2.79c4.14.66,6.91-1,7.85-3.76A5.14,5.14,0,0,0,450.48,97.2Z"/><ellipse class="cls-1" cx="355.46" cy="427.21" rx="110.74" ry="12.53"/><path class="cls-10" d="M404,164.29a20.56,20.56,0,0,1-2.45,2.38c-5.56,4.72-21.2,14.83-53.26,14.83-26.52,0-42.51-4.37-50.18-7.26a37.21,37.21,0,0,1-5.53-2.49s-8-20.45,22.51-17.6,47.45,13.81,60,8.66S408.18,156.12,404,164.29Z"/><path class="cls-11" d="M401.57,166.67c-5.56,4.72-21.2,14.83-53.26,14.83-26.52,0-42.51-4.37-50.18-7.26l0,0s-13.46-18.95,17-16.1,46.86,11.25,60,7.64C387.11,162.43,402.67,159.69,401.57,166.67Z"/><path class="cls-5" d="M422.47,209.37a2.69,2.69,0,0,0-3.81.06c-6.47,6.67-17.26,5.47-30.52-2l-.06,0a20.65,20.65,0,0,0-14.43-2.21v8a26,26,0,0,1,9.6,4.32c.16.11.31.23.47.36,4.63,3.86,11,17.24,19.14,22.15a17.77,17.77,0,0,0,15,1.85,2.7,2.7,0,0,0-1.58-5.15c-9,2.33-17.6-4.35-25-17.67a20.19,20.19,0,0,0-4.52-5.56,21.17,21.17,0,0,0-4.6-3,36.54,36.54,0,0,1,5.06,1.79c6.41,2.67,14.9,7,21.82,6.94A17.76,17.76,0,0,0,422.69,213a2.63,2.63,0,0,0,.6-1.69A2.69,2.69,0,0,0,422.47,209.37Z"/><path class="cls-6" d="M388.14,207.43l-.06,0a20.65,20.65,0,0,0-14.43-2.21v8a26,26,0,0,1,9.6,4.32c.16.11.31.23.47.36a14.08,14.08,0,0,0,3-4.38,21.17,21.17,0,0,0-4.6-3,36.54,36.54,0,0,1,5.06,1.79A20.25,20.25,0,0,0,388.14,207.43Z"/><path class="cls-8" d="M404,164.29s-5,29.84-33.33,46.26c0,0-18.42,6.45-32.31,2.22a20.91,20.91,0,0,1-9-5.21s-30.85-23.37-36.81-35.81c0,0,3.85-9.52,26.86-10.2a56.69,56.69,0,0,1,13.27,1.5C351.09,166.94,373,176.21,404,164.29Z"/><path class="cls-8" d="M400.31,167.69s-6.81,23.49-20,31.1a20.45,20.45,0,0,1-6.66-2.06S388.14,190.91,400.31,167.69Z"/><path class="cls-8" d="M353.51,433.33c-111,0-112.69-84-78.06-136.23S330,205.69,330,205.69l2.85.48a113.06,113.06,0,0,0,12.68,1.42h0a116,116,0,0,0,28.49-1.9s5.72,9.8,15.77,26.13S414.26,271,431.57,297.1c11.14,16.78,18.52,36.86,19.71,56.37h0C453.81,394.65,428.81,433.33,353.51,433.33Z"/><path class="cls-8" d="M374.27,219.2s33.48,48.72,53.17,82.19c16.65,28.31,22.86,57.05,7.25,77.11,0,0,11.29-30-12.69-75.12C410.92,282.54,381.52,243.56,374.27,219.2Z"/><path class="cls-10" d="M367.84,346.42v11.17l-14.19,0V346.94c-10.06-.6-19.83-3.31-25.87-7l7.64-17.32A48.25,48.25,0,0,0,358.67,329c6.74,0,9.15-1.42,9.15-3.83,0-8.86-38.94-1.68-39-27.94,0-11.37,8.24-20.94,24.74-23.27V263h14.19v10.76c7.44.7,14.69,2.61,20.43,5.82l-7.13,17.22c-6.95-3.52-13.49-5.22-19.63-5.22-6.94,0-9.15,2-9.15,4.44,0,8.45,38.95,1.37,39,27.34C391.28,334.22,383.44,343.69,367.84,346.42Z"/><path class="cls-10" d="M429.13,411.09c-15.51,13.54-39.91,22.24-75.62,22.24-111,0-112.69-84-78.06-136.23S330,205.69,330,205.69l2.85.48c1.51.26,3,.48,4.53.67q4.06.53,8.15.75h0s-1.77,50.32-30.25,90-22.44,86.25,36.83,98.15c41.17,8.27,101.59-4.68,99.13-42.29h0C452.61,375.12,446.33,396.08,429.13,411.09Z"/><path class="cls-10" d="M332.73,163.07v0Z"/><path class="cls-10" d="M345.75,206.15c.66-10.46-14.74-13.94-22.34-26.61-8-13.24,9.32-16.49,9.32-16.49a56.69,56.69,0,0,0-13.27-1.5,53.32,53.32,0,0,0-17,2.87c-8.14,3-9.88,7.33-9.88,7.33,5.09,10.6,28.25,29.15,35,34.4Z"/><path class="cls-5" d="M379.92,209a4.91,4.91,0,0,1-1.66,3.75s-26.27-8.1-52.74,1.44a8.11,8.11,0,0,1-1.46-5.07,8.43,8.43,0,0,1,1.35-4s25.58-7.24,53.17.13A7.09,7.09,0,0,1,379.92,209Z"/><path class="cls-6" d="M379.92,209a4.91,4.91,0,0,1-1.66,3.75s-26.27-8.1-52.74,1.44a8.11,8.11,0,0,1-1.46-5.07C330.26,207,355.29,201.67,379.92,209Z"/><path class="cls-5" d="M381.83,204.92a3.9,3.9,0,0,1-3.25,1.25s-24.11-9.31-53.17-.13a4.35,4.35,0,0,1-2.94-1.47,3.43,3.43,0,0,1-.68-2.09s31.66-11.11,60.69.38A3.08,3.08,0,0,1,381.83,204.92Z"/><path class="cls-6" d="M381.83,204.92a3.9,3.9,0,0,1-3.25,1.25s-24.11-9.31-53.17-.13a4.35,4.35,0,0,1-2.94-1.47C327.16,203.07,355.47,194.81,381.83,204.92Z"/><ellipse class="cls-1" cx="153.46" cy="426.29" rx="124.24" ry="11.78"/><path class="cls-9" d="M166.7,415.2v.17c0,2-1,3.87-3,5.64a19.1,19.1,0,0,1-1.58,1.28,31.88,31.88,0,0,1-6,3.29c-.51.22-1,.44-1.58.65-1.83.72-3.83,1.39-6,2l-1.58.44q-2.83.76-6,1.4l-1.58.31q-2.88.56-6,1l-1.58.21q-2.91.39-6,.66l-1.58.14c-2,.16-4,.29-6,.38l-1.57.07q-3,.12-6,.13h-1.58q-3,0-6-.11l-1.58-.06c-1.49-.07-3-.15-4.43-.25l-1.55-.12L94,432.3q-3.06-.27-6-.64l-1.58-.21c-1.23-.17-2.45-.35-3.64-.55l-2.34-.41-1.58-.3q-3.14-.63-6-1.37l-1.11-.3-.47-.13c-.85-.24-1.69-.49-2.49-.74-1.22-.39-2.39-.79-3.49-1.21-.54-.21-1.07-.42-1.58-.64a35,35,0,0,1-5.31-2.7l-.68-.44L57,422.1c-.27-.21-.54-.41-.79-.62-2.28-1.91-3.53-4-3.53-6.11,0-.16,0-.31,0-.46V402.74h114l0,12.63Z"/><path class="cls-12" d="M57.79,402.74v19.92L57,422.1c-.27-.21-.54-.41-.79-.62V402.74Z"/><path class="cls-12" d="M65.36,402.72v23.72c-.54-.21-1.07-.42-1.58-.64V402.73Z"/><path class="cls-12" d="M72.92,402.71v26.11l-1.11-.3-.47-.13V402.72Z"/><path class="cls-12" d="M80.49,402.7v27.79l-1.58-.3V402.7Z"/><path class="cls-12" d="M88.05,402.69v29l-1.58-.21V402.69Z"/><path class="cls-12" d="M95.62,402.68v29.75L94,432.3V402.68Z"/><path class="cls-12" d="M103.18,402.67v30.19l-1.58-.06V402.67Z"/><path class="cls-12" d="M110.75,402.66V433h-1.58V402.66Z"/><path class="cls-12" d="M118.31,402.65v30.12l-1.57.07V402.65Z"/><path class="cls-12" d="M125.88,402.64v29.61l-1.58.14V402.64Z"/><path class="cls-12" d="M133.44,402.62v28.76l-1.58.21v-29Z"/><path class="cls-12" d="M141,402.61v27.47l-1.58.31V402.62Z"/><path class="cls-12" d="M148.58,402.6v25.64l-1.58.44V402.6Z"/><path class="cls-12" d="M156.14,402.59v23c-.51.22-1,.44-1.58.65V402.59Z"/><path class="cls-12" d="M163.71,402.58V421a19.1,19.1,0,0,1-1.58,1.28V402.58Z"/><path class="cls-13" d="M166.69,402.73c0,8.94-25.51,16.18-57,16.18-4.3,0-8.49-.13-12.52-.39-5.07-.32-9.88-.83-14.34-1.51-4-.61-7.67-1.34-11-2.19-1-.25-2-.52-3-.8a47.47,47.47,0,0,1-10.37-4.18c-.52-.3-1-.61-1.47-.92-2.78-1.91-4.32-4-4.32-6.19a4,4,0,0,1,0-.6c1.1-8.66,26.18-15.59,57-15.59a188.6,188.6,0,0,1,21.4,1.18c1.28.15,2.53.31,3.76.48a115.32,115.32,0,0,1,14.51,2.91c.93.26,1.84.52,2.71.8a47.72,47.72,0,0,1,8,3.24,16.86,16.86,0,0,1,5.12,3.88,6.11,6.11,0,0,1,1.45,3.1A3,3,0,0,1,166.69,402.73Z"/><g class="cls-14"><path class="cls-15" d="M165.19,399l-68,19.49c-5.07-.32-9.88-.83-14.34-1.51l77.23-21.86A16.86,16.86,0,0,1,165.19,399Z"/></g><g class="cls-14"><path class="cls-15" d="M134.86,388.2,58.49,409.84c-.52-.3-1-.61-1.47-.92l74.08-21.2C132.38,387.87,133.63,388,134.86,388.2Z"/></g><g class="cls-14"><path class="cls-15" d="M152.08,391.91,71.83,414.82c-1-.25-2-.52-3-.8l80.51-22.91C150.3,391.37,151.21,391.63,152.08,391.91Z"/></g><path class="cls-12" d="M155.25,402.73a3.81,3.81,0,0,1-.05.59c-1.09,6.86-21.08,12.35-45.5,12.35s-44.41-5.49-45.51-12.35a3.81,3.81,0,0,1,0-.59c0-7.13,20.44-12.94,45.56-12.94S155.25,395.6,155.25,402.73Z"/><path class="cls-9" d="M155.2,403.32c-1.09,6.86-21.08,12.35-45.5,12.35h-1.63a148.63,148.63,0,0,1-15.46-.94,101.9,101.9,0,0,1-13-2.29c-1-.25-1.9-.5-2.81-.77a32.12,32.12,0,0,1-9.52-4.24,11.12,11.12,0,0,1-1.39-1.17,5.43,5.43,0,0,1-1.67-2.93C65.29,396.46,85.28,391,109.7,391c3.09,0,6.1.09,9,.25,1.49.09,3,.2,4.39.32A111.18,111.18,0,0,1,139,394c1,.23,2,.48,2.87.74a39,39,0,0,1,8.81,3.49c2.19,1.27,3.67,2.66,4.29,4.11A3.94,3.94,0,0,1,155.2,403.32Z"/><g class="cls-16"><path class="cls-15" d="M154.92,402.35l-46.85,13.31a148.63,148.63,0,0,1-15.46-.94l58-16.48C152.82,399.51,154.3,400.9,154.92,402.35Z"/></g><g class="cls-16"><path class="cls-15" d="M123.12,391.55,67.25,407.42a11.12,11.12,0,0,1-1.39-1.17l52.87-15C120.22,391.32,121.68,391.43,123.12,391.55Z"/></g><g class="cls-16"><path class="cls-15" d="M141.82,394.75,79.58,412.43c-1-.25-1.9-.5-2.81-.77L139,394C139.94,394.24,140.9,394.49,141.82,394.75Z"/></g><path class="cls-12" d="M116,410.07v2.15h-9.61v-2.05a125.66,125.66,0,0,1-17.52-1.36l5.18-3.33a103.2,103.2,0,0,0,15.75,1.24c4.57,0,6.2-.27,6.2-.74,0-1.7-26.38-.33-26.38-5.38,0-2.19,5.59-4,16.77-4.47V394H116v2.07a110,110,0,0,1,13.84,1.12L125,400.52a92.88,92.88,0,0,0-13.29-1c-4.71,0-6.21.38-6.21.85,0,1.62,26.39.27,26.39,5.26C131.92,407.73,126.6,409.55,116,410.07Z"/><path class="cls-13" d="M115.75,409.35v2.15h-9.61v-2.05a127.45,127.45,0,0,1-17.52-1.35l5.18-3.34A101.94,101.94,0,0,0,109.55,406c4.57,0,6.2-.27,6.2-.73,0-1.71-26.38-.33-26.38-5.39,0-2.18,5.59-4,16.77-4.47V393.3h9.61v2.07a111.74,111.74,0,0,1,13.84,1.13l-4.84,3.31a93,93,0,0,0-13.29-1c-4.71,0-6.21.39-6.21.85,0,1.63,26.39.27,26.39,5.27C131.64,407,126.32,408.83,115.75,409.35Z"/><path class="cls-9" d="M170,396.55v.16c0,2-1,3.88-3,5.65a19.1,19.1,0,0,1-1.58,1.28,31.88,31.88,0,0,1-6,3.29c-.51.22-1,.44-1.58.65-1.83.72-3.83,1.39-6,2l-1.58.44q-2.84.77-6,1.4l-1.58.31c-1.92.37-3.92.7-6,1l-1.58.21c-2,.26-3.94.48-6,.66l-1.58.14q-2.94.24-6,.38l-1.58.07q-3,.12-6,.13h-1.58q-3,0-6-.11l-1.58-.06c-1.49-.07-3-.15-4.43-.25L99,413.78l-1.58-.13q-3.06-.27-6-.64l-1.58-.21c-1.23-.17-2.45-.35-3.64-.55l-2.34-.41-1.58-.3q-3.14-.63-6-1.37l-1.11-.3-.47-.13c-.85-.24-1.69-.49-2.49-.74-1.22-.39-2.39-.79-3.49-1.21-.54-.21-1.07-.42-1.58-.64a35.9,35.9,0,0,1-5.31-2.7l-.68-.44-.79-.56-.79-.62c-2.28-1.91-3.53-4-3.53-6.12,0-.15,0-.3,0-.45V384.09H170l0,12.63Z"/><path class="cls-12" d="M61.13,384.09V404l-.79-.56-.79-.62V384.09Z"/><path class="cls-12" d="M68.7,384.07v23.72c-.54-.21-1.07-.42-1.58-.64V384.08Z"/><path class="cls-12" d="M76.26,384.06v26.11l-1.11-.3-.47-.13V384.07Z"/><path class="cls-12" d="M83.83,384.05v27.79l-1.58-.3V384.05Z"/><path class="cls-12" d="M91.39,384v29l-1.58-.21V384Z"/><path class="cls-12" d="M99,384v29.75l-1.58-.13V384Z"/><path class="cls-12" d="M106.52,384v30.19l-1.58-.06V384Z"/><path class="cls-12" d="M114.09,384v30.31h-1.58V384Z"/><path class="cls-12" d="M121.66,384v30.12l-1.58.07V384Z"/><path class="cls-12" d="M129.22,384V413.6l-1.58.14V384Z"/><path class="cls-12" d="M136.79,384v28.76l-1.58.21V384Z"/><path class="cls-12" d="M144.35,384v27.47l-1.58.31V384Z"/><path class="cls-12" d="M151.92,384v25.64l-1.58.44V384Z"/><path class="cls-12" d="M159.48,383.94v23c-.51.22-1,.44-1.58.65V383.94Z"/><path class="cls-12" d="M167.05,383.93v18.43a19.1,19.1,0,0,1-1.58,1.28V383.93Z"/><path class="cls-13" d="M170,384.08c0,8.94-25.51,16.18-57,16.18-4.3,0-8.49-.13-12.52-.39-5.07-.32-9.88-.83-14.34-1.51-4-.61-7.67-1.34-11-2.19-1-.25-2-.52-3-.8a47.47,47.47,0,0,1-10.37-4.18c-.52-.3-1-.61-1.47-.92-2.78-1.91-4.32-4-4.32-6.19a4,4,0,0,1,.05-.6c1.1-8.66,26.18-15.59,57-15.59a188.6,188.6,0,0,1,21.4,1.18c1.28.15,2.53.31,3.76.48a115.32,115.32,0,0,1,14.51,2.91c.94.26,1.84.52,2.71.8a47.72,47.72,0,0,1,8,3.24,16.86,16.86,0,0,1,5.12,3.88,6.21,6.21,0,0,1,1.46,3.1A4,4,0,0,1,170,384.08Z"/><g class="cls-14"><path class="cls-15" d="M168.53,380.38l-68,19.49c-5.07-.32-9.88-.83-14.34-1.51l77.23-21.86A16.86,16.86,0,0,1,168.53,380.38Z"/></g><g class="cls-14"><path class="cls-15" d="M138.2,369.55,61.83,391.19c-.52-.3-1-.61-1.47-.92l74.08-21.2C135.72,369.22,137,369.38,138.2,369.55Z"/></g><g class="cls-14"><path class="cls-15" d="M155.42,373.26,75.17,396.17c-1-.25-2-.52-3-.8l80.51-22.91C153.65,372.72,154.55,373,155.42,373.26Z"/></g><path class="cls-12" d="M158.59,384.08a5.65,5.65,0,0,1,0,.59C157.45,391.53,137.46,397,113,397s-44.41-5.49-45.51-12.35a3.81,3.81,0,0,1,0-.59c0-7.13,20.43-12.94,45.55-12.94S158.59,377,158.59,384.08Z"/><path class="cls-9" d="M158.55,384.67C157.45,391.53,137.46,397,113,397h-1.63A148.63,148.63,0,0,1,96,396.07a101.9,101.9,0,0,1-13-2.29c-1-.25-1.9-.5-2.81-.77a32.12,32.12,0,0,1-9.52-4.24,11.12,11.12,0,0,1-1.39-1.17,5.49,5.49,0,0,1-1.67-2.93c1.1-6.86,21.09-12.34,45.51-12.34,3.09,0,6.11.09,9,.25,1.49.09,3,.2,4.39.32a111.18,111.18,0,0,1,15.83,2.46c1,.23,2,.48,2.87.74a39.34,39.34,0,0,1,8.82,3.49c2.18,1.27,3.66,2.65,4.28,4.11A4.47,4.47,0,0,1,158.55,384.67Z"/><g class="cls-16"><path class="cls-15" d="M158.26,383.7,111.41,397A148.63,148.63,0,0,1,96,396.07l58-16.48C156.16,380.86,157.64,382.24,158.26,383.7Z"/></g><g class="cls-16"><path class="cls-15" d="M126.46,372.9,70.59,388.77a11.12,11.12,0,0,1-1.39-1.17l52.87-15C123.56,372.67,125,372.78,126.46,372.9Z"/></g><g class="cls-16"><path class="cls-15" d="M145.16,376.1,82.92,393.78c-1-.25-1.9-.5-2.81-.77l62.18-17.65C143.28,375.59,144.24,375.84,145.16,376.1Z"/></g><path class="cls-12" d="M119.37,391.42v2.15h-9.61v-2.05a125.66,125.66,0,0,1-17.52-1.36l5.18-3.33a103.2,103.2,0,0,0,15.75,1.24c4.57,0,6.2-.27,6.2-.74,0-1.7-26.38-.33-26.38-5.38,0-2.19,5.59-4,16.77-4.47v-2.11h9.61v2.07a110,110,0,0,1,13.84,1.12l-4.84,3.31a92.88,92.88,0,0,0-13.29-1c-4.71,0-6.21.38-6.21.85,0,1.62,26.39.27,26.39,5.26C135.26,389.08,129.94,390.9,119.37,391.42Z"/><path class="cls-13" d="M119.09,390.7v2.15h-9.61V390.8A125.66,125.66,0,0,1,92,389.44l5.18-3.33a101.94,101.94,0,0,0,15.75,1.24c4.57,0,6.2-.27,6.2-.73,0-1.71-26.38-.33-26.38-5.39,0-2.18,5.59-4,16.77-4.47v-2.11h9.61v2.07a111.74,111.74,0,0,1,13.84,1.13l-4.84,3.31a93,93,0,0,0-13.29-1c-4.71,0-6.21.39-6.21.85,0,1.63,26.39.27,26.39,5.27C135,388.36,129.66,390.18,119.09,390.7Z"/><path class="cls-9" d="M158.21,377.69a.81.81,0,0,1,0,.16c0,2-1.06,3.88-3,5.65a16.21,16.21,0,0,1-1.58,1.27,32.1,32.1,0,0,1-6,3.29c-.51.22-1,.44-1.58.65-1.83.72-3.83,1.4-6,2l-1.58.44q-2.83.75-6,1.4l-1.58.31c-1.92.36-3.92.69-6,1l-1.58.22q-2.91.38-6,.66l-1.58.13c-2,.17-4,.29-6,.39l-1.58.07c-2,.07-4,.11-6,.13h-1.57c-2,0-4,0-6-.11l-1.58-.07c-1.5-.06-3-.15-4.44-.25l-1.55-.11-1.58-.14c-2-.17-4-.39-6-.64l-1.58-.2c-1.24-.18-2.45-.36-3.64-.56-.79-.13-1.58-.26-2.35-.41-.53-.09-1.06-.2-1.58-.3-2.09-.41-4.09-.87-6-1.36l-1.11-.3-.47-.13c-.86-.24-1.69-.49-2.5-.75-1.22-.39-2.38-.79-3.49-1.21l-1.58-.63a36.89,36.89,0,0,1-5.31-2.7l-.67-.45c-.28-.18-.54-.37-.79-.56s-.54-.41-.79-.62c-2.28-1.9-3.53-4-3.53-6.11,0-.15,0-.3,0-.45V365.23h114l0,12.63Z"/><path class="cls-12" d="M49.31,365.22v19.92c-.28-.18-.54-.37-.79-.56s-.54-.41-.79-.62V365.22Z"/><path class="cls-12" d="M56.87,365.21v23.71l-1.58-.63V365.21Z"/><path class="cls-12" d="M64.44,365.2v26.11l-1.11-.3-.47-.13V365.2Z"/><path class="cls-12" d="M72,365.19V393c-.53-.09-1.06-.2-1.58-.3V365.19Z"/><path class="cls-12" d="M79.57,365.17v29l-1.58-.2V365.18Z"/><path class="cls-12" d="M87.13,365.16v29.76l-1.58-.14V365.16Z"/><path class="cls-12" d="M94.7,365.15v30.2l-1.58-.07V365.16Z"/><path class="cls-12" d="M102.26,365.14v30.32h-1.57V365.14Z"/><path class="cls-12" d="M109.83,365.13v30.13l-1.58.07v-30.2Z"/><path class="cls-12" d="M117.39,365.12v29.62l-1.58.13V365.12Z"/><path class="cls-12" d="M125,365.11v28.75l-1.58.22v-29Z"/><path class="cls-12" d="M132.52,365.1v27.47l-1.58.31V365.1Z"/><path class="cls-12" d="M140.09,365.08v25.65l-1.58.44V365.09Z"/><path class="cls-12" d="M147.66,365.07v23c-.51.22-1,.44-1.58.65V365.08Z"/><path class="cls-12" d="M155.22,365.06V383.5a16.21,16.21,0,0,1-1.58,1.27V365.06Z"/><path class="cls-13" d="M158.2,365.21c0,8.94-25.51,16.19-57,16.19-4.3,0-8.49-.14-12.52-.39-5.06-.33-9.87-.84-14.33-1.52-4-.6-7.68-1.34-11-2.18-1-.26-2-.53-3-.81A47.57,47.57,0,0,1,50,372.32c-.52-.3-1-.61-1.46-.92-2.79-1.9-4.32-4-4.32-6.19a4,4,0,0,1,0-.6C45.37,356,70.44,349,101.21,349a188.78,188.78,0,0,1,21.41,1.18c1.27.14,2.53.3,3.76.48a115.6,115.6,0,0,1,14.5,2.9c.94.26,1.84.53,2.72.8a47.58,47.58,0,0,1,8,3.24,17.06,17.06,0,0,1,5.13,3.89,6.16,6.16,0,0,1,1.45,3.09A4,4,0,0,1,158.2,365.21Z"/><g class="cls-14"><path class="cls-15" d="M156.71,361.52,88.69,381c-5.06-.33-9.87-.84-14.33-1.52l77.22-21.86A17.06,17.06,0,0,1,156.71,361.52Z"/></g><g class="cls-14"><path class="cls-15" d="M126.38,350.69,50,372.32c-.52-.3-1-.61-1.46-.92l74.08-21.19C123.89,350.35,125.15,350.51,126.38,350.69Z"/></g><g class="cls-14"><path class="cls-15" d="M143.6,354.39,63.34,377.31c-1-.26-2-.53-3-.81l80.5-22.91C141.82,353.85,142.72,354.12,143.6,354.39Z"/></g><path class="cls-12" d="M146.76,365.21a4,4,0,0,1,0,.6c-1.1,6.86-21.09,12.34-45.51,12.34S56.8,372.67,55.7,365.81c0-.2,0-.4,0-.6,0-7.13,20.43-12.93,45.55-12.93S146.76,358.08,146.76,365.21Z"/><path class="cls-9" d="M146.72,365.81c-1.1,6.86-21.09,12.34-45.51,12.34H99.58a148.53,148.53,0,0,1-15.45-.93,102.94,102.94,0,0,1-13-2.3c-1-.24-1.91-.5-2.81-.76a32.44,32.44,0,0,1-9.53-4.25,10.32,10.32,0,0,1-1.38-1.17,5.39,5.39,0,0,1-1.68-2.92c1.1-6.86,21.09-12.35,45.51-12.35,3.09,0,6.11.09,9,.26,1.49.08,3,.19,4.4.32a109.7,109.7,0,0,1,15.82,2.45c1,.24,1.95.48,2.87.75a39.15,39.15,0,0,1,8.82,3.49c2.19,1.27,3.66,2.65,4.28,4.11A3.85,3.85,0,0,1,146.72,365.81Z"/><g class="cls-16"><path class="cls-15" d="M146.43,364.84l-46.85,13.3a148.53,148.53,0,0,1-15.45-.93l58-16.48C144.34,362,145.81,363.38,146.43,364.84Z"/></g><g class="cls-16"><path class="cls-15" d="M114.64,354,58.76,369.9a10.32,10.32,0,0,1-1.38-1.17l52.86-15C111.73,353.8,113.2,353.91,114.64,354Z"/></g><g class="cls-16"><path class="cls-15" d="M133.33,357.24,71.1,374.91c-1-.24-1.91-.5-2.81-.76l62.17-17.66C131.45,356.73,132.41,357,133.33,357.24Z"/></g><path class="cls-12" d="M107.55,372.55v2.15H97.93v-2.05a125.66,125.66,0,0,1-17.52-1.36L85.59,368a101.94,101.94,0,0,0,15.75,1.24c4.57,0,6.21-.27,6.21-.73,0-1.71-26.39-.33-26.39-5.39,0-2.18,5.59-4,16.77-4.47V356.5h9.62v2.07a112.08,112.08,0,0,1,13.84,1.13L116.55,363a93.2,93.2,0,0,0-13.3-1c-4.7,0-6.2.39-6.2.85,0,1.63,26.38.27,26.38,5.27C123.43,370.21,118.11,372,107.55,372.55Z"/><path class="cls-13" d="M107.27,371.84V374H97.65v-2.06a124.35,124.35,0,0,1-17.52-1.35l5.18-3.33a103.2,103.2,0,0,0,15.75,1.24c4.57,0,6.21-.27,6.21-.74,0-1.7-26.39-.33-26.39-5.38,0-2.19,5.59-4,16.77-4.47v-2.11h9.62v2.07A110.3,110.3,0,0,1,121.11,359l-4.84,3.31a93.2,93.2,0,0,0-13.3-1c-4.7,0-6.2.39-6.2.86,0,1.62,26.38.27,26.38,5.26C123.15,369.49,117.83,371.31,107.27,371.84Z"/><path class="cls-9" d="M162.33,357.72v.16c0,2-1.06,3.88-3,5.65a16.26,16.26,0,0,1-1.58,1.28,33.29,33.29,0,0,1-6,3.29c-.51.22-1,.43-1.58.65q-2.74,1.08-6,2c-.52.15-1,.3-1.58.44-1.89.51-3.89,1-6,1.4l-1.58.31c-1.93.36-3.92.69-6,1l-1.58.21c-1.94.25-3.94.48-6,.66l-1.58.14q-2.94.24-6,.38l-1.58.07c-2,.07-4,.12-6,.13H104.8c-2,0-4,0-6-.11l-1.58-.06c-1.5-.07-3-.15-4.43-.25L91.24,375l-1.58-.13c-2-.18-4-.4-6-.64L82.1,374c-1.24-.17-2.45-.36-3.64-.55L76.12,373l-1.58-.31c-2.1-.41-4.1-.87-6-1.36l-1.11-.3-.47-.13c-.86-.24-1.69-.49-2.5-.74-1.22-.39-2.38-.8-3.49-1.22-.54-.2-1.06-.41-1.58-.63a35.76,35.76,0,0,1-5.3-2.7l-.68-.44c-.28-.19-.54-.37-.79-.56s-.54-.42-.79-.63c-2.28-1.9-3.53-4-3.53-6.11,0-.15,0-.3,0-.45V345.26h114l0,12.63Z"/><path class="cls-12" d="M53.42,345.25v19.93c-.28-.19-.54-.37-.79-.56s-.54-.42-.79-.63V345.26Z"/><path class="cls-12" d="M61,345.24V369c-.54-.2-1.06-.41-1.58-.63V345.24Z"/><path class="cls-12" d="M68.55,345.23v26.11l-1.11-.3-.47-.13V345.23Z"/><path class="cls-12" d="M76.12,345.22V373l-1.58-.31V345.22Z"/><path class="cls-12" d="M83.68,345.21v29L82.1,374V345.21Z"/><path class="cls-12" d="M91.24,345.2V375l-1.58-.13V345.2Z"/><path class="cls-12" d="M98.81,345.19v30.19l-1.58-.06V345.19Z"/><path class="cls-12" d="M106.38,345.17v30.32H104.8V345.18Z"/><path class="cls-12" d="M113.94,345.16v30.13l-1.58.07V345.17Z"/><path class="cls-12" d="M121.51,345.15v29.62l-1.58.14V345.15Z"/><path class="cls-12" d="M129.07,345.14V373.9l-1.58.21v-29Z"/><path class="cls-12" d="M136.64,345.13V372.6l-1.58.31V345.13Z"/><path class="cls-12" d="M144.2,345.12v25.64c-.52.15-1,.3-1.58.44V345.12Z"/><path class="cls-12" d="M151.77,345.11v23c-.51.22-1,.43-1.58.65V345.11Z"/><path class="cls-12" d="M159.33,345.1v18.43a16.26,16.26,0,0,1-1.58,1.28V345.1Z"/><path class="cls-13" d="M162.31,345.25c0,8.93-25.51,16.18-57,16.18-4.3,0-8.49-.13-12.52-.39-5.06-.32-9.87-.84-14.33-1.51-4-.61-7.67-1.34-11-2.19-1-.26-2-.52-3-.8a48.08,48.08,0,0,1-10.38-4.18c-.52-.3-1-.61-1.46-.92-2.79-1.91-4.32-4-4.32-6.19a3,3,0,0,1,.05-.6c1.1-8.66,26.18-15.59,56.94-15.59a188.78,188.78,0,0,1,21.41,1.18c1.27.15,2.53.31,3.76.48a115.14,115.14,0,0,1,14.5,2.91c.94.25,1.85.52,2.72.8a46.75,46.75,0,0,1,8,3.24,16.92,16.92,0,0,1,5.13,3.88,6.07,6.07,0,0,1,1.45,3.1A4,4,0,0,1,162.31,345.25Z"/><g class="cls-14"><path class="cls-15" d="M160.82,341.55,92.8,361c-5.06-.32-9.87-.84-14.33-1.51l77.22-21.86A16.92,16.92,0,0,1,160.82,341.55Z"/></g><g class="cls-14"><path class="cls-15" d="M130.49,330.72,54.11,352.36c-.52-.3-1-.61-1.46-.92l74.08-21.2C128,330.39,129.26,330.55,130.49,330.72Z"/></g><g class="cls-14"><path class="cls-15" d="M147.71,334.43,67.45,357.34c-1-.26-2-.52-3-.8L145,333.63C145.93,333.88,146.84,334.15,147.71,334.43Z"/></g><path class="cls-12" d="M150.88,345.25a3.92,3.92,0,0,1,0,.59c-1.1,6.86-21.09,12.34-45.51,12.34s-44.41-5.48-45.5-12.34a3.92,3.92,0,0,1,0-.59c0-7.14,20.43-12.94,45.55-12.94S150.88,338.11,150.88,345.25Z"/><path class="cls-9" d="M150.83,345.84c-1.1,6.86-21.09,12.34-45.51,12.34H103.7a148.55,148.55,0,0,1-15.46-.93,101.59,101.59,0,0,1-13-2.29c-1-.25-1.91-.5-2.81-.77a32.19,32.19,0,0,1-9.53-4.24,11.11,11.11,0,0,1-1.38-1.17,5.43,5.43,0,0,1-1.67-2.93c1.09-6.86,21.08-12.34,45.5-12.34,3.09,0,6.11.08,9,.25,1.49.09,3,.19,4.4.32a111.11,111.11,0,0,1,15.82,2.45q1.49.36,2.88.75a39.24,39.24,0,0,1,8.81,3.49c2.19,1.27,3.66,2.65,4.28,4.11A3.85,3.85,0,0,1,150.83,345.84Z"/><g class="cls-16"><path class="cls-15" d="M150.54,344.87l-46.84,13.3a148.55,148.55,0,0,1-15.46-.93l58-16.48C148.45,342,149.92,343.41,150.54,344.87Z"/></g><g class="cls-16"><path class="cls-15" d="M118.75,334.07,62.87,349.94a11.11,11.11,0,0,1-1.38-1.17l52.86-15C115.84,333.84,117.31,333.94,118.75,334.07Z"/></g><g class="cls-16"><path class="cls-15" d="M137.45,337.27,75.21,355c-1-.25-1.91-.5-2.81-.77l62.17-17.66Q136.06,336.88,137.45,337.27Z"/></g><path class="cls-12" d="M111.66,352.59v2.15H102v-2.06a126,126,0,0,1-17.52-1.35L89.7,348a103.2,103.2,0,0,0,15.75,1.24c4.57,0,6.21-.27,6.21-.74,0-1.7-26.39-.33-26.39-5.38,0-2.19,5.59-4,16.77-4.48v-2.11h9.62v2.08a110.3,110.3,0,0,1,13.84,1.12L120.66,343a93.2,93.2,0,0,0-13.3-1c-4.7,0-6.2.39-6.2.86,0,1.62,26.38.27,26.38,5.26C127.54,350.24,122.23,352.06,111.66,352.59Z"/><path class="cls-13" d="M111.38,351.87V354h-9.62v-2a125.79,125.79,0,0,1-17.52-1.36l5.18-3.33a101.94,101.94,0,0,0,15.75,1.24c4.57,0,6.21-.27,6.21-.73,0-1.71-26.39-.33-26.39-5.39,0-2.19,5.59-4,16.77-4.47v-2.11h9.62v2.07A112.22,112.22,0,0,1,125.22,339l-4.84,3.32a93.2,93.2,0,0,0-13.3-1c-4.7,0-6.2.39-6.2.85,0,1.63,26.38.27,26.38,5.27C127.26,349.53,122,351.35,111.38,351.87Z"/><path class="cls-13" d="M268,359.74a53.92,53.92,0,0,1-72.69,66.38c-1.19-.51-2.36-1.07-3.51-1.67a54,54,0,0,1-13.68-10.16q-1.19-1.2-2.28-2.49a53.83,53.83,0,0,1-10.34-18.32c-.21-.63-.4-1.27-.58-1.91a54,54,0,0,1,55.44-68.81c1.3.09,2.59.22,3.88.4a54,54,0,0,1,16.07,4.91c1.11.54,2.21,1.12,3.28,1.73a53.76,53.76,0,0,1,23.75,28.05Q267.65,358.78,268,359.74Z"/><g class="cls-16"><path class="cls-15" d="M262.76,348.47l-40.84,81.86a53.76,53.76,0,0,1-14.47-.55l46.66-92.08A54,54,0,0,1,262.76,348.47Z"/></g><g class="cls-16"><path class="cls-15" d="M224.2,323.16l-46.12,91.13q-1.19-1.2-2.28-2.49l44.52-89C221.62,322.85,222.91,323,224.2,323.16Z"/></g><g class="cls-16"><path class="cls-15" d="M243.55,329.8l-48.28,96.32c-1.19-.51-2.36-1.07-3.51-1.67l48.51-96.38C241.38,328.61,242.48,329.19,243.55,329.8Z"/></g><path class="cls-12" d="M257.68,363.13c.2.62.39,1.26.57,1.89A43.13,43.13,0,0,1,176.41,392q-.34-.91-.66-1.86a43.13,43.13,0,1,1,81.93-27Z"/><path class="cls-9" d="M258.25,365a43.16,43.16,0,0,1-28.05,52.55c-.49.17-1,.31-1.47.46a43,43,0,0,1-29-1.79c-1.13-.49-2.23-1-3.32-1.6a43.07,43.07,0,0,1-13-10.61c-.87-1-1.7-2.16-2.47-3.3a42.57,42.57,0,0,1-4.55-8.77,43.19,43.19,0,0,1,28.05-52.56,44,44,0,0,1,8.39-1.86,41.2,41.2,0,0,1,4.28-.29,43,43,0,0,1,16.79,3.08c1.14.45,2.26,1,3.36,1.51A43.07,43.07,0,0,1,257,362C257.44,363,257.87,364,258.25,365Z"/><g class="cls-16"><path class="cls-15" d="M257,362l-28.26,56a42.91,42.91,0,0,1-14.88,1.61l35-69.35A42.86,42.86,0,0,1,257,362Z"/></g><g class="cls-16"><path class="cls-15" d="M217.13,337.25,183.43,404c-.87-1-1.7-2.16-2.47-3.3l31.89-63.19A41.2,41.2,0,0,1,217.13,337.25Z"/></g><g class="cls-16"><path class="cls-15" d="M237.28,341.84l-37.54,74.4c-1.13-.49-2.23-1-3.32-1.6l37.5-74.31C235.06,340.78,236.18,341.29,237.28,341.84Z"/></g><path class="cls-12" d="M230.06,398l2.24,6.8-8.64,2.85-2.14-6.5c-6.26,1.65-12.75,1.95-17.17.89l1.18-12.08a31.05,31.05,0,0,0,15.46-.73c4.11-1.36,5.3-2.7,4.81-4.17-1.78-5.4-24.07,6.77-29.34-9.23-2.28-6.93.83-14.41,10.42-19.13l-2.2-6.69,8.65-2.84,2.16,6.56a33.61,33.61,0,0,1,13.61-.54l-.9,11.91a27.92,27.92,0,0,0-13,.75c-4.23,1.4-5.18,3.07-4.69,4.54,1.69,5.15,24-7,29.21,8.86C241.9,385.85,239,393.19,230.06,398Z"/><path class="cls-13" d="M229.06,395.79l2.24,6.81-8.64,2.85-2.14-6.5c-6.25,1.65-12.75,1.95-17.17.89l1.19-12.08A30.9,30.9,0,0,0,220,387c4.11-1.35,5.3-2.69,4.81-4.16-1.77-5.4-24.07,6.77-29.34-9.24-2.28-6.92.83-14.4,10.42-19.12l-2.2-6.69,8.65-2.84,2.16,6.56a33.48,33.48,0,0,1,13.62-.54l-.9,11.91a28,28,0,0,0-13,.75c-4.23,1.39-5.18,3.06-4.69,4.54,1.69,5.15,24-7,29.22,8.86C240.91,383.67,238,391,229.06,395.79Z"/><ellipse class="cls-1" cx="538.58" cy="427.68" rx="110.87" ry="11.02"/><path class="cls-9" d="M559.84,417.36v.17c0,2-1.05,3.87-3,5.64a19.1,19.1,0,0,1-1.58,1.28,31.88,31.88,0,0,1-6,3.29c-.51.22-1,.44-1.58.65-1.83.72-3.83,1.39-6,2l-1.58.44q-2.83.77-6,1.4l-1.58.31q-2.88.56-6,1l-1.58.21q-2.91.39-6,.66l-1.58.14q-2.94.24-6,.38l-1.58.07q-3,.12-6,.13h-1.58q-3,0-6-.11l-1.58-.06c-1.49-.07-3-.15-4.43-.25l-1.55-.12-1.58-.13q-3.06-.27-6-.64l-1.58-.21c-1.23-.17-2.45-.35-3.64-.55l-2.34-.41-1.58-.3q-3.14-.63-6-1.37l-1.11-.3-.47-.13c-.85-.24-1.69-.49-2.49-.74-1.22-.39-2.39-.79-3.49-1.21-.54-.21-1.07-.42-1.58-.64a35.9,35.9,0,0,1-5.31-2.7l-.68-.44-.79-.56c-.27-.21-.54-.41-.79-.62-2.28-1.91-3.53-4-3.53-6.11,0-.16,0-.31,0-.46V404.9h114l0,12.63Z"/><path class="cls-12" d="M450.93,404.9v19.92l-.79-.56c-.27-.21-.54-.41-.79-.62V404.9Z"/><path class="cls-12" d="M458.5,404.88V428.6c-.54-.21-1.07-.42-1.58-.64V404.89Z"/><path class="cls-12" d="M466.06,404.87V431l-1.11-.3-.47-.13V404.88Z"/><path class="cls-12" d="M473.63,404.86v27.79l-1.58-.3V404.86Z"/><path class="cls-12" d="M481.19,404.85v29l-1.58-.21V404.85Z"/><path class="cls-12" d="M488.76,404.84v29.75l-1.58-.13V404.84Z"/><path class="cls-12" d="M496.32,404.83V435l-1.58-.06V404.83Z"/><path class="cls-12" d="M503.89,404.82v30.31h-1.58V404.82Z"/><path class="cls-12" d="M511.46,404.81v30.12l-1.58.07V404.81Z"/><path class="cls-12" d="M519,404.8v29.61l-1.58.14V404.8Z"/><path class="cls-12" d="M526.58,404.78v28.76l-1.58.21v-29Z"/><path class="cls-12" d="M534.15,404.77v27.47l-1.58.31V404.78Z"/><path class="cls-12" d="M541.72,404.76V430.4l-1.58.44V404.76Z"/><path class="cls-12" d="M549.28,404.75v23c-.51.22-1,.44-1.58.65V404.75Z"/><path class="cls-12" d="M556.85,404.74v18.43a19.1,19.1,0,0,1-1.58,1.28V404.74Z"/><path class="cls-13" d="M559.83,404.89c0,8.94-25.51,16.18-57,16.18-4.3,0-8.49-.13-12.52-.39-5.07-.32-9.88-.83-14.34-1.51-4-.61-7.67-1.34-11-2.19-1-.25-2-.52-3-.8A47.47,47.47,0,0,1,451.63,412c-.52-.3-1-.61-1.47-.92-2.78-1.91-4.32-4-4.32-6.19a4,4,0,0,1,.05-.6c1.1-8.66,26.18-15.59,56.95-15.59a188.6,188.6,0,0,1,21.4,1.18c1.28.15,2.53.31,3.76.48a115.32,115.32,0,0,1,14.51,2.91c.94.26,1.84.52,2.71.8a47.72,47.72,0,0,1,8,3.24,16.86,16.86,0,0,1,5.12,3.88,6.21,6.21,0,0,1,1.46,3.1A4,4,0,0,1,559.83,404.89Z"/><g class="cls-14"><path class="cls-15" d="M558.33,401.19l-68,19.49c-5.07-.32-9.88-.83-14.34-1.51l77.23-21.86A16.86,16.86,0,0,1,558.33,401.19Z"/></g><g class="cls-14"><path class="cls-15" d="M528,390.36,451.63,412c-.52-.3-1-.61-1.47-.92l74.08-21.2C525.52,390,526.77,390.19,528,390.36Z"/></g><g class="cls-14"><path class="cls-15" d="M545.22,394.07,465,417c-1-.25-2-.52-3-.8l80.51-22.91C543.45,393.53,544.35,393.79,545.22,394.07Z"/></g><path class="cls-12" d="M548.39,404.89a5.65,5.65,0,0,1,0,.59c-1.1,6.86-21.09,12.35-45.51,12.35s-44.41-5.49-45.51-12.35a3.81,3.81,0,0,1,0-.59c0-7.13,20.43-12.94,45.55-12.94S548.39,397.76,548.39,404.89Z"/><path class="cls-9" d="M548.35,405.48c-1.1,6.86-21.09,12.35-45.51,12.35h-1.63a148.63,148.63,0,0,1-15.46-.94,101.9,101.9,0,0,1-13-2.29c-1-.25-1.9-.5-2.81-.77a32.12,32.12,0,0,1-9.52-4.24,11.12,11.12,0,0,1-1.39-1.17,5.43,5.43,0,0,1-1.67-2.93c1.1-6.86,21.09-12.34,45.51-12.34,3.09,0,6.11.09,9,.25,1.49.09,3,.2,4.39.32a111.18,111.18,0,0,1,15.83,2.46c1,.23,1.95.48,2.87.74a39.34,39.34,0,0,1,8.82,3.49,9.78,9.78,0,0,1,4.28,4.11A4.47,4.47,0,0,1,548.35,405.48Z"/><g class="cls-16"><path class="cls-15" d="M548.06,404.51l-46.85,13.31a148.63,148.63,0,0,1-15.46-.94l58-16.48A9.78,9.78,0,0,1,548.06,404.51Z"/></g><g class="cls-16"><path class="cls-15" d="M516.26,393.71l-55.87,15.87a11.12,11.12,0,0,1-1.39-1.17l52.87-15C513.36,393.48,514.82,393.59,516.26,393.71Z"/></g><g class="cls-16"><path class="cls-15" d="M535,396.91l-62.24,17.68c-1-.25-1.9-.5-2.81-.77l62.18-17.65C533.08,396.4,534,396.65,535,396.91Z"/></g><path class="cls-12" d="M509.17,412.23v2.15h-9.61v-2.05A125.66,125.66,0,0,1,482,411l5.18-3.33A103.2,103.2,0,0,0,503,408.88c4.57,0,6.2-.27,6.2-.74,0-1.7-26.38-.33-26.38-5.38,0-2.19,5.59-4,16.77-4.47v-2.11h9.61v2.07A110,110,0,0,1,523,399.37l-4.84,3.31a92.88,92.88,0,0,0-13.29-1c-4.71,0-6.21.38-6.21.85,0,1.62,26.39.27,26.39,5.26C525.06,409.89,519.74,411.71,509.17,412.23Z"/><path class="cls-13" d="M508.89,411.51v2.15h-9.61v-2.05a127.45,127.45,0,0,1-17.52-1.35l5.18-3.34a101.94,101.94,0,0,0,15.75,1.24c4.57,0,6.2-.27,6.2-.73,0-1.71-26.38-.33-26.38-5.39,0-2.18,5.59-4,16.77-4.47v-2.11h9.61v2.07a111.74,111.74,0,0,1,13.84,1.13L517.89,402a93,93,0,0,0-13.29-1c-4.71,0-6.21.39-6.21.85,0,1.63,26.39.27,26.39,5.27C524.78,409.17,519.46,411,508.89,411.51Z"/><path class="cls-9" d="M563.42,397.4v.16c0,2-1,3.88-3,5.65a19,19,0,0,1-1.58,1.27,31.88,31.88,0,0,1-6,3.29c-.51.22-1,.44-1.58.65-1.82.72-3.83,1.39-6,2l-1.58.44q-2.84.75-6,1.4l-1.58.31c-1.92.36-3.92.69-6,1l-1.58.22c-2,.25-3.94.47-6,.66l-1.58.13c-1.95.16-3.95.29-6,.39l-1.58.07q-3,.1-6,.12h-1.58c-2,0-4-.05-6-.12-.53,0-1.06,0-1.58-.06-1.5-.06-3-.15-4.44-.25l-1.55-.11-1.58-.14c-2-.17-4-.39-6-.64-.54-.06-1.06-.13-1.58-.21-1.24-.17-2.46-.35-3.65-.55-.79-.13-1.57-.26-2.34-.41-.53-.09-1.06-.2-1.58-.3q-3.13-.61-6-1.37l-1.11-.29-.47-.13q-1.28-.36-2.49-.75c-1.22-.39-2.39-.79-3.49-1.21L460.5,408a36.89,36.89,0,0,1-5.31-2.7l-.67-.45c-.28-.18-.54-.37-.79-.56s-.54-.41-.79-.62c-2.29-1.9-3.53-4-3.53-6.11a3.39,3.39,0,0,1,0-.45V384.94h114l0,12.63Z"/><path class="cls-12" d="M454.52,384.93v19.92c-.28-.18-.54-.37-.79-.56s-.54-.41-.79-.62V384.93Z"/><path class="cls-12" d="M462.08,384.92v23.71L460.5,408V384.92Z"/><path class="cls-12" d="M469.64,384.91V411l-1.11-.29-.47-.13V384.91Z"/><path class="cls-12" d="M477.21,384.9v27.78c-.53-.09-1.06-.2-1.58-.3V384.9Z"/><path class="cls-12" d="M484.78,384.88v29c-.54-.06-1.06-.13-1.58-.21V384.89Z"/><path class="cls-12" d="M492.34,384.87v29.76l-1.58-.14V384.87Z"/><path class="cls-12" d="M499.91,384.86v30.19c-.53,0-1.06,0-1.58-.06V384.86Z"/><path class="cls-12" d="M507.47,384.85v30.31h-1.58V384.85Z"/><path class="cls-12" d="M515,384.84V415l-1.58.07v-30.2Z"/><path class="cls-12" d="M522.6,384.83v29.62l-1.58.13V384.83Z"/><path class="cls-12" d="M530.17,384.82v28.75l-1.58.22v-29Z"/><path class="cls-12" d="M537.73,384.81v27.47l-1.58.31V384.81Z"/><path class="cls-12" d="M545.3,384.79v25.65l-1.58.44V384.8Z"/><path class="cls-12" d="M552.86,384.78v23c-.51.22-1,.44-1.58.65V384.79Z"/><path class="cls-12" d="M560.43,384.77v18.44a19,19,0,0,1-1.58,1.27V384.77Z"/><path class="cls-13" d="M563.41,384.92c0,8.94-25.51,16.19-57,16.19-4.3,0-8.49-.14-12.52-.39-5.07-.33-9.88-.84-14.33-1.52-4-.6-7.68-1.34-11-2.18q-1.53-.39-3-.81A47.47,47.47,0,0,1,455.21,392c-.52-.3-1-.61-1.47-.92-2.78-1.9-4.31-4-4.31-6.19a4,4,0,0,1,0-.6c1.11-8.66,26.18-15.58,56.95-15.58a188.46,188.46,0,0,1,21.4,1.18c1.28.14,2.53.3,3.76.48a115.41,115.41,0,0,1,14.51,2.9c.94.26,1.84.53,2.71.8a47.37,47.37,0,0,1,8,3.24,16.87,16.87,0,0,1,5.12,3.89,6.1,6.1,0,0,1,1.46,3.09A4,4,0,0,1,563.41,384.92Z"/><g class="cls-14"><path class="cls-15" d="M561.91,381.23l-68,19.49c-5.07-.33-9.88-.84-14.33-1.52l77.22-21.86A16.87,16.87,0,0,1,561.91,381.23Z"/></g><g class="cls-14"><path class="cls-15" d="M531.58,370.4,455.21,392c-.52-.3-1-.61-1.47-.92l74.08-21.19C529.1,370.06,530.35,370.22,531.58,370.4Z"/></g><g class="cls-14"><path class="cls-15" d="M548.8,374.1,468.55,397q-1.53-.39-3-.81l80.51-22.91C547,373.56,547.93,373.83,548.8,374.1Z"/></g><path class="cls-12" d="M552,384.92c0,.2,0,.4,0,.6-1.1,6.86-21.09,12.34-45.51,12.34s-44.41-5.48-45.51-12.34c0-.2,0-.4,0-.6,0-7.13,20.43-12.93,45.55-12.93S552,377.79,552,384.92Z"/><path class="cls-9" d="M551.93,385.52c-1.1,6.86-21.09,12.34-45.51,12.34h-1.63a148.89,148.89,0,0,1-15.46-.93,103.09,103.09,0,0,1-13-2.3c-1-.24-1.91-.5-2.81-.76a32.44,32.44,0,0,1-9.53-4.25,11.12,11.12,0,0,1-1.39-1.17,5.43,5.43,0,0,1-1.67-2.92c1.1-6.86,21.09-12.35,45.51-12.35,3.09,0,6.11.09,9,.26,1.49.08,3,.19,4.39.32a109.85,109.85,0,0,1,15.83,2.45c1,.24,2,.48,2.87.75a39.34,39.34,0,0,1,8.82,3.49c2.18,1.27,3.66,2.65,4.28,4.11A3.73,3.73,0,0,1,551.93,385.52Z"/><g class="cls-16"><path class="cls-15" d="M551.64,384.55l-46.85,13.3a148.89,148.89,0,0,1-15.46-.93l58-16.48C549.54,381.71,551,383.09,551.64,384.55Z"/></g><g class="cls-16"><path class="cls-15" d="M519.84,373.75,464,389.61a11.12,11.12,0,0,1-1.39-1.17l52.87-15C516.94,373.51,518.41,373.62,519.84,373.75Z"/></g><g class="cls-16"><path class="cls-15" d="M538.54,377l-62.23,17.67c-1-.24-1.91-.5-2.81-.76l62.17-17.66C536.66,376.44,537.62,376.68,538.54,377Z"/></g><path class="cls-12" d="M512.75,392.26v2.15h-9.61v-2.05A125.66,125.66,0,0,1,485.62,391l5.18-3.33a101.94,101.94,0,0,0,15.75,1.24c4.57,0,6.2-.27,6.2-.73,0-1.71-26.38-.33-26.38-5.39,0-2.18,5.59-4,16.77-4.47v-2.11h9.61v2.07a113.86,113.86,0,0,1,13.84,1.12l-4.84,3.32a93,93,0,0,0-13.29-1c-4.71,0-6.21.39-6.21.85,0,1.63,26.39.27,26.39,5.27C528.64,389.92,523.32,391.74,512.75,392.26Z"/><path class="cls-13" d="M512.47,391.55v2.15h-9.61v-2.06a124.35,124.35,0,0,1-17.52-1.35l5.18-3.33a103.2,103.2,0,0,0,15.75,1.24c4.57,0,6.2-.27,6.2-.74,0-1.7-26.38-.33-26.38-5.38,0-2.19,5.59-4,16.77-4.47v-2.12h9.61v2.08a110,110,0,0,1,13.84,1.12L521.47,382a93,93,0,0,0-13.29-1c-4.71,0-6.21.39-6.21.86,0,1.62,26.39.27,26.39,5.26C528.36,389.2,523,391,512.47,391.55Z"/><path class="cls-9" d="M562.9,377.43v.16c0,2-1,3.88-3,5.65a16.26,16.26,0,0,1-1.58,1.28,32.61,32.61,0,0,1-6,3.29c-.51.22-1,.43-1.58.65-1.83.72-3.83,1.39-6,2l-1.58.44c-1.89.51-3.89,1-6,1.4l-1.58.31q-2.88.54-6,1l-1.58.22c-1.94.25-3.94.48-6,.66l-1.58.14c-2,.16-4,.29-6,.38l-1.58.07c-2,.07-4,.12-6,.13h-1.58q-3,0-6-.11L497.8,395c-1.49-.07-3-.15-4.43-.25l-1.55-.12-1.58-.13c-2.05-.18-4-.4-6-.64l-1.58-.21c-1.23-.17-2.45-.36-3.64-.55l-2.34-.41-1.58-.31c-2.09-.41-4.09-.87-6-1.36l-1.11-.3-.47-.13c-.85-.24-1.69-.49-2.49-.74-1.23-.39-2.39-.8-3.49-1.22L460,388a35.9,35.9,0,0,1-5.31-2.7l-.68-.44-.79-.56c-.27-.21-.54-.42-.79-.63-2.28-1.9-3.53-4-3.53-6.11,0-.15,0-.3,0-.45V365h114l0,12.63Z"/><path class="cls-12" d="M454,365v19.93l-.79-.56c-.27-.21-.54-.42-.79-.63V365Z"/><path class="cls-12" d="M461.56,365v23.71L460,388V365Z"/><path class="cls-12" d="M469.12,364.94v26.11l-1.11-.3-.47-.13V364.94Z"/><path class="cls-12" d="M476.69,364.93v27.79l-1.58-.31V364.93Z"/><path class="cls-12" d="M484.25,364.92v29l-1.58-.21V364.92Z"/><path class="cls-12" d="M491.82,364.91v29.75l-1.58-.13V364.91Z"/><path class="cls-12" d="M499.38,364.9v30.19L497.8,395V364.9Z"/><path class="cls-12" d="M507,364.88V395.2h-1.58V364.89Z"/><path class="cls-12" d="M514.51,364.87V395l-1.58.07V364.88Z"/><path class="cls-12" d="M522.08,364.86v29.62l-1.58.14V364.86Z"/><path class="cls-12" d="M529.64,364.85V393.6l-1.58.22v-29Z"/><path class="cls-12" d="M537.21,364.84v27.47l-1.58.31V364.84Z"/><path class="cls-12" d="M544.78,364.83v25.64l-1.58.44V364.83Z"/><path class="cls-12" d="M552.34,364.82v23c-.51.22-1,.43-1.58.65V364.82Z"/><path class="cls-12" d="M559.9,364.81v18.43a16.26,16.26,0,0,1-1.58,1.28V364.81Z"/><path class="cls-13" d="M562.89,365c0,8.93-25.51,16.18-57,16.18q-6.47,0-12.52-.39c-5.07-.32-9.88-.84-14.34-1.51-4-.61-7.67-1.34-11-2.19-1-.26-2-.52-3-.8a48,48,0,0,1-10.37-4.18c-.52-.3-1-.61-1.47-.92-2.78-1.91-4.32-4-4.32-6.19a4,4,0,0,1,.05-.6c1.1-8.67,26.18-15.59,56.95-15.59A188.6,188.6,0,0,1,527.3,350c1.28.15,2.53.31,3.76.48a115.32,115.32,0,0,1,14.51,2.91c.93.25,1.84.52,2.71.8a46.88,46.88,0,0,1,8,3.24,16.86,16.86,0,0,1,5.12,3.88,6.07,6.07,0,0,1,1.45,3.1A3,3,0,0,1,562.89,365Z"/><g class="cls-14"><path class="cls-15" d="M561.39,361.26l-68,19.49c-5.07-.32-9.88-.84-14.34-1.51l77.23-21.86A16.86,16.86,0,0,1,561.39,361.26Z"/></g><g class="cls-14"><path class="cls-15" d="M531.06,350.43l-76.37,21.64c-.52-.3-1-.61-1.47-.92L527.3,350C528.58,350.1,529.83,350.26,531.06,350.43Z"/></g><g class="cls-14"><path class="cls-15" d="M548.28,354.14,468,377.05c-1-.26-2-.52-3-.8l80.51-22.91C546.5,353.59,547.41,353.86,548.28,354.14Z"/></g><path class="cls-12" d="M551.45,365a4,4,0,0,1-.05.59c-1.1,6.86-21.08,12.34-45.5,12.34s-44.41-5.48-45.51-12.34a4,4,0,0,1-.05-.59c0-7.14,20.44-12.94,45.56-12.94S551.45,357.82,551.45,365Z"/><path class="cls-9" d="M551.4,365.55c-1.1,6.86-21.08,12.34-45.5,12.34h-1.63a148.72,148.72,0,0,1-15.46-.93,101.81,101.81,0,0,1-13-2.3c-1-.24-1.9-.49-2.81-.76a32.38,32.38,0,0,1-9.52-4.24,11.25,11.25,0,0,1-1.39-1.17,5.43,5.43,0,0,1-1.67-2.93c1.1-6.86,21.09-12.34,45.51-12.34q4.64,0,9,.25c1.49.09,3,.19,4.39.32a111.26,111.26,0,0,1,15.83,2.45c1,.24,2,.49,2.87.75a39,39,0,0,1,8.81,3.49c2.19,1.27,3.67,2.65,4.29,4.11A3.82,3.82,0,0,1,551.4,365.55Z"/><g class="cls-16"><path class="cls-15" d="M551.12,364.58l-46.85,13.3a148.72,148.72,0,0,1-15.46-.93l58-16.48C549,361.74,550.5,363.12,551.12,364.58Z"/></g><g class="cls-16"><path class="cls-15" d="M519.32,353.78l-55.87,15.87a11.25,11.25,0,0,1-1.39-1.17l52.87-15C516.42,353.55,517.88,353.65,519.32,353.78Z"/></g><g class="cls-16"><path class="cls-15" d="M538,357l-62.24,17.67c-1-.24-1.9-.49-2.81-.76l62.18-17.66C536.14,356.47,537.1,356.72,538,357Z"/></g><path class="cls-12" d="M512.23,372.3v2.15h-9.61v-2.06A126.18,126.18,0,0,1,485.09,371l5.19-3.33A103.2,103.2,0,0,0,506,369c4.56,0,6.2-.27,6.2-.74,0-1.7-26.39-.33-26.39-5.38,0-2.19,5.6-4,16.78-4.48v-2.11h9.61v2.08a110,110,0,0,1,13.84,1.12l-4.84,3.31a93.06,93.06,0,0,0-13.29-1c-4.71,0-6.21.39-6.21.85,0,1.63,26.39.28,26.39,5.27C528.12,370,522.8,371.77,512.23,372.3Z"/><path class="cls-13" d="M512,371.58v2.15h-9.61v-2.05a126,126,0,0,1-17.53-1.36L490,367a101.94,101.94,0,0,0,15.75,1.24c4.56,0,6.2-.27,6.2-.73,0-1.71-26.39-.33-26.39-5.39,0-2.19,5.6-4,16.78-4.47v-2.11H512v2.07a111.89,111.89,0,0,1,13.84,1.12L521,362a94.46,94.46,0,0,0-13.29-1c-4.71,0-6.21.38-6.21.85,0,1.63,26.39.27,26.39,5.27C527.84,369.24,522.52,371.06,512,371.58Z"/><path class="cls-9" d="M560.62,357.14v.16c0,2-1,3.88-3,5.65-.48.43-1,.86-1.58,1.28a32.47,32.47,0,0,1-6,3.28c-.51.23-1,.44-1.58.66-1.83.72-3.83,1.39-6,2l-1.58.44q-2.83.75-6,1.4l-1.58.31q-2.88.54-6,1l-1.58.22q-2.91.38-6,.66l-1.58.14c-2,.16-4,.29-6,.38l-1.57.07c-2,.07-4,.12-6,.13h-1.58c-2,0-4,0-6-.11l-1.58-.06c-1.49-.07-3-.16-4.43-.26l-1.55-.11-1.58-.13c-2-.18-4-.4-6-.64l-1.58-.21c-1.23-.17-2.45-.36-3.64-.55l-2.34-.41-1.58-.31c-2.09-.41-4.09-.87-6-1.36l-1.11-.3-.47-.13c-.85-.24-1.69-.49-2.49-.74-1.22-.39-2.39-.8-3.49-1.22l-1.58-.63a36.89,36.89,0,0,1-5.31-2.7l-.68-.44-.79-.56c-.27-.21-.54-.42-.79-.63-2.28-1.9-3.53-4-3.53-6.11,0-.15,0-.3,0-.45V344.68h114l0,12.63Z"/><path class="cls-12" d="M451.71,344.67V364.6l-.79-.56c-.27-.21-.54-.42-.79-.63V344.67Z"/><path class="cls-12" d="M459.28,344.66v23.71l-1.58-.63V344.66Z"/><path class="cls-12" d="M466.84,344.65v26.11l-1.11-.3-.47-.13V344.65Z"/><path class="cls-12" d="M474.41,344.64v27.79l-1.58-.31V344.64Z"/><path class="cls-12" d="M482,344.63v29l-1.58-.21V344.63Z"/><path class="cls-12" d="M489.54,344.62v29.75l-1.58-.13V344.62Z"/><path class="cls-12" d="M497.1,344.6v30.2l-1.58-.06V344.61Z"/><path class="cls-12" d="M504.67,344.59v30.32h-1.58V344.6Z"/><path class="cls-12" d="M512.23,344.58v30.13l-1.57.07v-30.2Z"/><path class="cls-12" d="M519.8,344.57v29.62l-1.58.14V344.57Z"/><path class="cls-12" d="M527.36,344.56v28.75l-1.58.22v-29Z"/><path class="cls-12" d="M534.93,344.55V372l-1.58.31V344.55Z"/><path class="cls-12" d="M542.5,344.54v25.64l-1.58.44V344.54Z"/><path class="cls-12" d="M550.06,344.53v23c-.51.23-1,.44-1.58.66V344.53Z"/><path class="cls-12" d="M557.63,344.52V363c-.48.43-1,.86-1.58,1.28V344.52Z"/><path class="cls-13" d="M560.61,344.66c0,8.94-25.51,16.19-57,16.19-4.3,0-8.49-.13-12.52-.39-5.07-.32-9.88-.84-14.34-1.52-4-.6-7.67-1.33-11-2.18-1-.26-2-.53-3-.8a48.49,48.49,0,0,1-10.37-4.18c-.52-.31-1-.61-1.47-.93-2.78-1.9-4.32-4-4.32-6.19a4,4,0,0,1,.05-.6c1.1-8.66,26.18-15.58,56.95-15.58a188.6,188.6,0,0,1,21.4,1.18c1.28.15,2.53.31,3.76.48a115.41,115.41,0,0,1,14.51,2.9c.93.26,1.84.53,2.71.8a46.85,46.85,0,0,1,8,3.25,16.86,16.86,0,0,1,5.12,3.88,6.08,6.08,0,0,1,1.45,3.09A3,3,0,0,1,560.61,344.66Z"/><g class="cls-14"><path class="cls-15" d="M559.11,341l-68,19.49c-5.07-.32-9.88-.84-14.34-1.52L554,337.09A16.86,16.86,0,0,1,559.11,341Z"/></g><g class="cls-14"><path class="cls-15" d="M528.78,330.14l-76.37,21.64c-.52-.31-1-.61-1.47-.93L525,329.66C526.3,329.81,527.55,330,528.78,330.14Z"/></g><g class="cls-14"><path class="cls-15" d="M546,333.84l-80.25,22.92c-1-.26-2-.53-3-.8L543.29,333C544.22,333.3,545.13,333.57,546,333.84Z"/></g><path class="cls-12" d="M549.17,344.67a4,4,0,0,1,0,.59C548,352.12,528,357.6,503.62,357.6s-44.41-5.48-45.51-12.34a4,4,0,0,1-.05-.59c0-7.14,20.44-12.94,45.56-12.94S549.17,337.53,549.17,344.67Z"/><path class="cls-9" d="M549.12,345.26C548,352.12,528,357.6,503.62,357.6H502a148.72,148.72,0,0,1-15.46-.93,103.59,103.59,0,0,1-13-2.3c-1-.24-1.9-.49-2.81-.76a32.1,32.1,0,0,1-9.52-4.25,12,12,0,0,1-1.39-1.16,5.43,5.43,0,0,1-1.67-2.93c1.1-6.86,21.09-12.35,45.51-12.35,3.09,0,6.11.09,9,.26,1.49.09,3,.19,4.39.32a111.26,111.26,0,0,1,15.83,2.45c1,.24,2,.49,2.87.75a39.34,39.34,0,0,1,8.82,3.49c2.18,1.27,3.66,2.65,4.28,4.11A3.82,3.82,0,0,1,549.12,345.26Z"/><g class="cls-16"><path class="cls-15" d="M548.84,344.29,502,357.59a148.72,148.72,0,0,1-15.46-.93l58-16.48C546.74,341.45,548.22,342.83,548.84,344.29Z"/></g><g class="cls-16"><path class="cls-15" d="M517,333.49l-55.87,15.86a12,12,0,0,1-1.39-1.16l52.87-15C514.14,333.26,515.6,333.36,517,333.49Z"/></g><g class="cls-16"><path class="cls-15" d="M535.74,336.69,473.5,354.36c-1-.24-1.9-.49-2.81-.76l62.18-17.66C533.86,336.18,534.82,336.43,535.74,336.69Z"/></g><path class="cls-12" d="M510,352v2.15h-9.61v-2a125.88,125.88,0,0,1-17.52-1.35l5.18-3.33a103.24,103.24,0,0,0,15.75,1.23c4.57,0,6.2-.27,6.2-.73,0-1.7-26.38-.33-26.38-5.38,0-2.19,5.59-4,16.77-4.48V336H510V338a111.74,111.74,0,0,1,13.84,1.13L519,342.46a93,93,0,0,0-13.29-1c-4.71,0-6.21.39-6.21.85,0,1.63,26.39.27,26.39,5.27C525.84,349.66,520.52,351.48,510,352Z"/><path class="cls-13" d="M509.67,351.29v2.15h-9.61v-2.05A125.66,125.66,0,0,1,482.54,350l5.18-3.33a101.94,101.94,0,0,0,15.75,1.24c4.57,0,6.2-.27,6.2-.74,0-1.7-26.38-.33-26.38-5.38,0-2.19,5.59-4,16.77-4.47v-2.11h9.61v2.07a110,110,0,0,1,13.84,1.12l-4.84,3.31a94.36,94.36,0,0,0-13.29-1c-4.71,0-6.21.38-6.21.85,0,1.63,26.39.27,26.39,5.27C525.56,349,520.24,350.77,509.67,351.29Z"/><path class="cls-9" d="M569.94,340v.16c0,2-1.05,3.87-3,5.65a19,19,0,0,1-1.58,1.27,31.88,31.88,0,0,1-6,3.29c-.51.22-1,.44-1.58.65-1.82.72-3.83,1.39-6,2l-1.58.44q-2.84.75-6,1.4l-1.58.31c-1.92.36-3.92.69-6,1l-1.58.22c-2,.25-3.94.47-6,.66l-1.58.13c-1.95.16-3.95.29-6,.39l-1.58.07q-3,.11-6,.12h-1.58c-2,0-4-.05-6-.12-.53,0-1.06,0-1.58-.06-1.5-.06-3-.15-4.44-.25l-1.55-.11-1.58-.14c-2-.17-4-.39-6-.64-.54-.06-1.06-.13-1.58-.21-1.24-.17-2.46-.35-3.65-.55-.79-.13-1.57-.26-2.34-.41-.53-.09-1.06-.2-1.58-.3q-3.13-.62-6-1.37l-1.11-.29-.47-.13q-1.27-.36-2.49-.75c-1.22-.39-2.39-.79-3.49-1.21l-1.58-.63a36.89,36.89,0,0,1-5.31-2.7l-.67-.45c-.28-.18-.54-.37-.79-.56s-.54-.41-.79-.62c-2.29-1.9-3.53-4-3.53-6.11a3.39,3.39,0,0,1,0-.45V327.5h114l0,12.63Z"/><path class="cls-12" d="M461,327.49v19.92c-.28-.18-.54-.37-.79-.56s-.54-.41-.79-.62V327.49Z"/><path class="cls-12" d="M468.6,327.48v23.71l-1.58-.63V327.48Z"/><path class="cls-12" d="M476.16,327.47v26.1l-1.11-.29-.47-.13V327.47Z"/><path class="cls-12" d="M483.73,327.46v27.78c-.53-.09-1.06-.2-1.58-.3V327.46Z"/><path class="cls-12" d="M491.3,327.44v29c-.54-.06-1.06-.13-1.58-.21V327.45Z"/><path class="cls-12" d="M498.86,327.43v29.76l-1.58-.14V327.43Z"/><path class="cls-12" d="M506.43,327.42v30.19c-.53,0-1.06,0-1.58-.06V327.43Z"/><path class="cls-12" d="M514,327.41v30.31h-1.58V327.41Z"/><path class="cls-12" d="M521.56,327.4v30.13l-1.58.07V327.4Z"/><path class="cls-12" d="M529.12,327.39V357l-1.58.13V327.39Z"/><path class="cls-12" d="M536.69,327.38v28.75l-1.58.22v-29Z"/><path class="cls-12" d="M544.25,327.37v27.47l-1.58.31V327.37Z"/><path class="cls-12" d="M551.82,327.35V353l-1.58.44V327.36Z"/><path class="cls-12" d="M559.38,327.34v23c-.51.22-1,.44-1.58.65V327.35Z"/><path class="cls-12" d="M567,327.33v18.44a19,19,0,0,1-1.58,1.27V327.33Z"/><path class="cls-13" d="M569.93,327.48c0,8.94-25.51,16.19-57,16.19-4.3,0-8.49-.14-12.52-.39-5.07-.33-9.88-.84-14.33-1.52-4-.6-7.68-1.34-11-2.18q-1.53-.39-3-.81a47.47,47.47,0,0,1-10.37-4.18c-.52-.3-1-.61-1.47-.92-2.78-1.9-4.31-4-4.31-6.19a4,4,0,0,1,0-.6c1.11-8.66,26.18-15.58,57-15.58a188.46,188.46,0,0,1,21.4,1.18c1.28.14,2.53.3,3.76.48a115.41,115.41,0,0,1,14.51,2.9c.94.26,1.84.53,2.71.8a47.37,47.37,0,0,1,8,3.24,16.87,16.87,0,0,1,5.12,3.89,6.06,6.06,0,0,1,1.46,3.09A4,4,0,0,1,569.93,327.48Z"/><g class="cls-14"><path class="cls-15" d="M568.43,323.79l-68,19.49c-5.07-.33-9.88-.84-14.33-1.52l77.22-21.86A16.87,16.87,0,0,1,568.43,323.79Z"/></g><g class="cls-14"><path class="cls-15" d="M538.1,313l-76.37,21.63c-.52-.3-1-.61-1.47-.92l74.08-21.19C535.62,312.62,536.87,312.78,538.1,313Z"/></g><g class="cls-14"><path class="cls-15" d="M555.32,316.66l-80.25,22.92q-1.53-.39-3-.81l80.51-22.91C553.55,316.12,554.45,316.39,555.32,316.66Z"/></g><path class="cls-12" d="M558.49,327.48c0,.2,0,.4,0,.6-1.1,6.86-21.09,12.34-45.51,12.34s-44.41-5.48-45.51-12.34c0-.2,0-.4,0-.6,0-7.13,20.43-12.93,45.55-12.93S558.49,320.35,558.49,327.48Z"/><path class="cls-9" d="M558.45,328.08c-1.1,6.86-21.09,12.34-45.51,12.34h-1.63a148.72,148.72,0,0,1-15.46-.93,103.59,103.59,0,0,1-13-2.3c-1-.24-1.9-.5-2.8-.76a32.44,32.44,0,0,1-9.53-4.25A11.12,11.12,0,0,1,469.1,331a5.43,5.43,0,0,1-1.67-2.92c1.1-6.86,21.09-12.35,45.51-12.35,3.09,0,6.11.09,9,.26,1.49.08,3,.19,4.39.32a109.85,109.85,0,0,1,15.83,2.45c1,.24,1.95.48,2.87.75a39.34,39.34,0,0,1,8.82,3.49c2.18,1.27,3.66,2.65,4.28,4.11A3.85,3.85,0,0,1,558.45,328.08Z"/><g class="cls-16"><path class="cls-15" d="M558.16,327.11l-46.85,13.3a148.72,148.72,0,0,1-15.46-.93l58-16.48C556.06,324.27,557.54,325.65,558.16,327.11Z"/></g><g class="cls-16"><path class="cls-15" d="M526.36,316.31l-55.87,15.86A11.12,11.12,0,0,1,469.1,331L522,316C523.46,316.07,524.93,316.18,526.36,316.31Z"/></g><g class="cls-16"><path class="cls-15" d="M545.06,319.51l-62.24,17.67c-1-.24-1.9-.5-2.8-.76l62.17-17.66C543.18,319,544.14,319.24,545.06,319.51Z"/></g><path class="cls-12" d="M519.27,334.82V337h-9.61v-2.05a125.66,125.66,0,0,1-17.52-1.36l5.18-3.33a101.94,101.94,0,0,0,15.75,1.24c4.57,0,6.2-.27,6.2-.73,0-1.71-26.38-.33-26.38-5.39,0-2.18,5.59-4,16.77-4.47v-2.11h9.61v2.07A113.86,113.86,0,0,1,533.11,322l-4.84,3.32a93,93,0,0,0-13.29-1c-4.71,0-6.21.39-6.21.85,0,1.63,26.39.27,26.39,5.27C535.16,332.48,529.84,334.3,519.27,334.82Z"/><path class="cls-13" d="M519,334.11v2.15h-9.61V334.2a124.35,124.35,0,0,1-17.52-1.35l5.18-3.33a103.2,103.2,0,0,0,15.75,1.24c4.57,0,6.2-.27,6.2-.74,0-1.7-26.38-.33-26.38-5.38,0-2.19,5.59-4,16.77-4.47v-2.12H519v2.08a110,110,0,0,1,13.84,1.12L528,324.56a93,93,0,0,0-13.29-1c-4.71,0-6.21.39-6.21.86,0,1.62,26.39.27,26.39,5.26C534.88,331.76,529.56,333.58,519,334.11Z"/><path class="cls-9" d="M557.1,320a.92.92,0,0,1,0,.16c0,2-1.06,3.88-3,5.65a17.56,17.56,0,0,1-1.58,1.28,33.06,33.06,0,0,1-6,3.29c-.51.22-1,.43-1.58.65-1.82.72-3.82,1.39-6,2-.52.15-1,.3-1.58.44-1.89.51-3.89,1-6,1.4l-1.58.31c-1.92.36-3.92.69-6,1l-1.58.22c-1.94.25-3.94.48-6,.66l-1.58.14c-2,.16-4,.29-6,.38l-1.58.07c-2,.07-4,.12-6,.13h-1.58q-3,0-6-.11l-1.58-.06c-1.5-.07-3-.15-4.44-.25l-1.55-.12-1.58-.13c-2-.18-4-.4-6-.64l-1.58-.21c-1.24-.17-2.45-.36-3.64-.55l-2.35-.41-1.58-.31c-2.09-.41-4.09-.87-6-1.36l-1.11-.3-.47-.13c-.86-.24-1.69-.49-2.5-.74-1.22-.39-2.38-.8-3.49-1.22l-1.58-.63a35.9,35.9,0,0,1-5.31-2.7l-.67-.44-.79-.56c-.28-.21-.54-.42-.79-.63-2.29-1.9-3.53-4-3.53-6.11a3.39,3.39,0,0,1,0-.45V307.53h114l0,12.63Z"/><path class="cls-12" d="M448.2,307.52v19.93l-.79-.56c-.28-.21-.54-.42-.79-.63V307.53Z"/><path class="cls-12" d="M455.76,307.51v23.71l-1.58-.63V307.51Z"/><path class="cls-12" d="M463.33,307.5v26.11l-1.11-.3-.47-.13V307.5Z"/><path class="cls-12" d="M470.89,307.49v27.79l-1.58-.31V307.49Z"/><path class="cls-12" d="M478.46,307.48v29l-1.58-.21V307.48Z"/><path class="cls-12" d="M486,307.47v29.75l-1.58-.13V307.47Z"/><path class="cls-12" d="M493.59,307.46v30.19l-1.58-.06V307.46Z"/><path class="cls-12" d="M501.15,307.44v30.32h-1.58V307.45Z"/><path class="cls-12" d="M508.72,307.43v30.13l-1.58.07V307.44Z"/><path class="cls-12" d="M516.28,307.42V337l-1.58.14V307.42Z"/><path class="cls-12" d="M523.85,307.41v28.75l-1.58.22v-29Z"/><path class="cls-12" d="M531.41,307.4v27.47l-1.58.31V307.4Z"/><path class="cls-12" d="M539,307.39V333c-.52.15-1,.3-1.58.44V307.39Z"/><path class="cls-12" d="M546.54,307.38v23c-.51.22-1,.43-1.58.65V307.38Z"/><path class="cls-12" d="M554.11,307.37V325.8a17.56,17.56,0,0,1-1.58,1.28V307.37Z"/><path class="cls-13" d="M557.09,307.52c0,8.93-25.51,16.18-57,16.18-4.3,0-8.49-.13-12.52-.39-5.06-.32-9.88-.84-14.33-1.51-4-.61-7.68-1.34-11-2.19-1-.26-2-.52-3-.8a48.08,48.08,0,0,1-10.38-4.18c-.52-.3-1-.61-1.46-.92-2.79-1.91-4.32-4-4.32-6.19a4,4,0,0,1,0-.6c1.11-8.67,26.18-15.59,57-15.59a188.78,188.78,0,0,1,21.41,1.18c1.27.15,2.53.31,3.76.48a115.51,115.51,0,0,1,14.5,2.91c.94.25,1.84.52,2.72.8a46.75,46.75,0,0,1,8,3.24,17,17,0,0,1,5.13,3.88,6.15,6.15,0,0,1,1.45,3.1A4,4,0,0,1,557.09,307.52Z"/><g class="cls-14"><path class="cls-15" d="M555.6,303.82l-68,19.49c-5.06-.32-9.88-.84-14.33-1.51l77.22-21.86A17,17,0,0,1,555.6,303.82Z"/></g><g class="cls-14"><path class="cls-15" d="M525.27,293l-76.38,21.64c-.52-.3-1-.61-1.46-.92l74.08-21.2C522.78,292.66,524,292.82,525.27,293Z"/></g><g class="cls-14"><path class="cls-15" d="M542.49,296.7l-80.26,22.91c-1-.26-2-.52-3-.8l80.5-22.91C540.71,296.15,541.61,296.42,542.49,296.7Z"/></g><path class="cls-12" d="M545.65,307.52a5.85,5.85,0,0,1,0,.59c-1.1,6.86-21.09,12.34-45.51,12.34s-44.41-5.48-45.51-12.34a5.85,5.85,0,0,1,0-.59c0-7.14,20.43-12.94,45.55-12.94S545.65,300.38,545.65,307.52Z"/><path class="cls-9" d="M545.61,308.11c-1.1,6.86-21.09,12.34-45.51,12.34h-1.63a148.53,148.53,0,0,1-15.45-.93,101.27,101.27,0,0,1-13-2.29c-1-.25-1.91-.5-2.81-.77a32.45,32.45,0,0,1-9.53-4.24,12,12,0,0,1-1.39-1.17,5.49,5.49,0,0,1-1.67-2.93c1.1-6.86,21.09-12.34,45.51-12.34,3.09,0,6.11.08,9,.25,1.49.09,3,.19,4.39.32a111,111,0,0,1,15.83,2.45c1,.24,1.95.49,2.87.75A39.15,39.15,0,0,1,541,303c2.19,1.27,3.66,2.65,4.28,4.11A3.85,3.85,0,0,1,545.61,308.11Z"/><g class="cls-16"><path class="cls-15" d="M545.32,307.14l-46.85,13.3a148.53,148.53,0,0,1-15.45-.93L541,303C543.23,304.3,544.7,305.68,545.32,307.14Z"/></g><g class="cls-16"><path class="cls-15" d="M513.52,296.34l-55.87,15.87a12,12,0,0,1-1.39-1.17l52.87-15C510.62,296.11,512.09,296.21,513.52,296.34Z"/></g><g class="cls-16"><path class="cls-15" d="M532.22,299.54,470,317.22c-1-.25-1.91-.5-2.81-.77l62.17-17.66C530.34,299,531.3,299.28,532.22,299.54Z"/></g><path class="cls-12" d="M506.44,314.86V317h-9.62V315a125.88,125.88,0,0,1-17.52-1.35l5.18-3.33a103.2,103.2,0,0,0,15.75,1.24c4.57,0,6.21-.27,6.21-.74,0-1.7-26.39-.33-26.39-5.38,0-2.19,5.59-4,16.77-4.48V298.8h9.62v2.08A110.3,110.3,0,0,1,520.28,302l-4.84,3.31a93.2,93.2,0,0,0-13.3-1c-4.7,0-6.2.39-6.2.85,0,1.63,26.38.28,26.38,5.27C522.32,312.51,517,314.33,506.44,314.86Z"/><path class="cls-13" d="M506.16,314.14v2.15h-9.62v-2.05A125.66,125.66,0,0,1,479,312.88l5.18-3.33A101.94,101.94,0,0,0,500,310.79c4.57,0,6.21-.27,6.21-.73,0-1.71-26.39-.33-26.39-5.39,0-2.19,5.59-4,16.77-4.47v-2.11h9.62v2.07A112.22,112.22,0,0,1,520,301.28l-4.84,3.31a94.6,94.6,0,0,0-13.3-1c-4.7,0-6.2.38-6.2.85,0,1.63,26.38.27,26.38,5.27C522,311.8,516.72,313.62,506.16,314.14Z"/><path class="cls-5" d="M590,264.43l-5,17.47-2.1-.54-2-.53-4.07-1.12q-4.07-1.14-8.1-2.35c-5.39-1.63-10.76-3.37-16.12-5.31s-10.71-4-16.13-6.53c-2.7-1.27-5.42-2.64-8.21-4.29-1.4-.83-2.81-1.74-4.27-2.8a32.94,32.94,0,0,1-4.59-4,20.85,20.85,0,0,1-2.49-3.14c-.21-.32-.43-.68-.63-1s-.41-.75-.61-1.19l-.22-.47-.11-.26-.22-.51-.89-2c-.29-.69-.57-1.38-.85-2.07-.57-1.37-1.08-2.77-1.61-4.15-.27-.7-.5-1.4-.76-2.1s-.5-1.4-.73-2.11l-.69-2.12c-.23-.7-.43-1.41-.65-2.12-.45-1.42-.83-2.85-1.23-4.28-.76-2.86-1.47-5.74-2.07-8.64A167.45,167.45,0,0,1,503,200.63q-.39-4.42-.52-8.93c0-1.5-.06-3-.05-4.54,0-.76,0-1.54.06-2.32l.05-1.21,0-.63.05-.77,23.36,1.92,0,.65,0,.86c0,.59,0,1.19,0,1.8,0,1.22,0,2.47,0,3.71,0,2.5.16,5,.35,7.55a142.7,142.7,0,0,0,1.89,15.11c.47,2.5,1,5,1.54,7.46s1.23,4.92,1.95,7.35c.16.61.36,1.21.54,1.82s.37,1.21.57,1.81c.41,1.19.79,2.4,1.23,3.58.22.59.42,1.19.65,1.78l.68,1.77.17.44,0,.07a12.81,12.81,0,0,0,1.44,1.31c.74.58,1.62,1.2,2.56,1.82,1.9,1.23,4.05,2.44,6.27,3.61s4.56,2.29,6.94,3.38,4.79,2.14,7.23,3.16c4.9,2.05,9.9,4,14.94,5.87,2.52.94,5.06,1.87,7.6,2.76l3.81,1.33,1.9.65Z"/><path class="cls-6" d="M574.18,281a.69.69,0,0,1-.2,0,.67.67,0,0,1-.45-.83l6.09-20.49a.67.67,0,0,1,.84-.45.66.66,0,0,1,.45.83l-6.09,20.49A.67.67,0,0,1,574.18,281Z"/><path class="cls-6" d="M585.57,278.2l-.2,0-9.36-3a.68.68,0,0,1,.4-1.29l9.37,3a.68.68,0,0,1,.44.85A.7.7,0,0,1,585.57,278.2Z"/><path class="cls-6" d="M584,270.89a1.56,1.56,0,1,1-1.84-1.21A1.57,1.57,0,0,1,584,270.89Z"/><path class="cls-5" d="M588.69,418.5c-2.52-4.05-25.07-25.63-25.07-25.63s-4.6,3.62-4.38,7.59c.22,3.78.09,23.7.14,25.8h2.74l1.53-9.09s6.23,10,10.91,13.36,20.48,2.78,24.27,2.27S591.2,422.55,588.69,418.5Z"/><path class="cls-17" d="M560.91,383l3,8.89a11.29,11.29,0,0,0,0,7.2c1.27,4.3,6.06,11.11,10.63,16.16,4,4.36,12.39,8.71,14.92,7.57s-4.81-9.85-7-14.4a50.87,50.87,0,0,1-3.76-12.75c-.75-3.92-1.23-13.55-1.23-13.55Z"/><path class="cls-5" d="M655,411.52c-3.81-2.86-32.66-14.78-32.66-14.78s-3,5-1.32,8.66c1.58,3.45,8.69,22.06,9.5,24l2.55-1-1.88-9s9.43,7,15,8.48,20.08-4.85,23.43-6.7S658.86,414.37,655,411.52Z"/><path class="cls-17" d="M616.28,388.54l6,7.19a11.29,11.29,0,0,0,2.62,6.71c2.74,3.54,9.68,8.14,15.78,11.19,5.26,2.63,14.71,3.61,16.65,1.63s-8.07-7.43-11.72-10.88a50.84,50.84,0,0,1-8.14-10.51c-2.12-3.38-6.07-12.18-6.07-12.18Z"/><path class="cls-18" d="M590.63,279.52c-4.67-4.6-79-23.39-103.44-16.56-2.8,5.39,31.13,27.57,39.89,40.21,32.14,5.25,50.08,16.06,50.08,16.06s11.39,26.33,18.16,36S615,391.72,615,391.72l18.14-8.62S603.33,292,590.63,279.52Z"/><path class="cls-19" d="M610.56,381.31a.67.67,0,0,1-.27-1.29l18.21-7.88a.68.68,0,0,1,.89.35.69.69,0,0,1-.35.89l-18.22,7.88A.58.58,0,0,1,610.56,381.31Z"/><path class="cls-19" d="M615,379.39a.68.68,0,0,1-.62-.4c0-.12-1.48-3.23-11.94-20.35-11.39-18.66-22.81-45.54-22.93-45.81a.67.67,0,1,1,1.24-.52c.12.27,11.51,27.06,22.84,45.63,10.57,17.31,12,20.38,12,20.51a.67.67,0,0,1-.61.94Z"/><path class="cls-18" d="M461.15,256.91s-25.32,55.66,44.22,59.72c31.38,1.84,46.38-3,46.38-3s.75,27.76,2.21,39.47,5.82,32.59,5.82,32.59h18.81s7.54-85.57-7.63-94.93-41.49-16.39-79-20C492,270.75,466.66,259.59,461.15,256.91Z"/><path class="cls-19" d="M562.11,375.6a.68.68,0,0,1-.66-.54c-2.71-13.43-3.62-30.15-4.35-43.59-.61-11.14-1.18-21.66-2.62-22.93-1.15-1-6-.22-12.06.79-12.12,2-30.43,5.05-50.63.35-11-2.56-19.09-7.9-24-15.88-8.54-13.76-4.65-30.82-4.61-31a.68.68,0,0,1,.81-.5.67.67,0,0,1,.5.81c0,.17-3.8,16.71,4.45,30,4.75,7.66,12.56,12.8,23.19,15.27C512,313,530.19,310,542.2,308c7.19-1.19,11.54-1.91,13.18-.46s2.27,9.25,3.06,23.86c.73,13.39,1.64,30.05,4.33,43.39a.67.67,0,0,1-.52.8Z"/><path class="cls-19" d="M579,375.6h0L558,375.15a.68.68,0,0,1,0-1.35l20.92.45a.69.69,0,0,1,.66.69A.68.68,0,0,1,579,375.6Z"/><rect class="cls-10" x="510.74" y="274.92" width="74.78" height="9.75" rx="1.15" transform="translate(1096.26 559.59) rotate(180)"/><path class="cls-8" d="M593.32,284.67a6.22,6.22,0,0,0,6-4.61l14-52.38a5,5,0,0,0-4.87-6.34H575a5,5,0,0,0-4.85,3.68l-16.76,59.65Z"/><path class="cls-10" d="M570.11,225l-16.62,59.16h-3.82L566.28,225a5.06,5.06,0,0,1,4.86-3.68H575A5,5,0,0,0,570.11,225Z"/><path class="cls-10" d="M579.56,253.85c-.76,3.29,1.29,6,4.58,6a8,8,0,0,0,7.33-6,4.57,4.57,0,0,0-4.57-5.95A8,8,0,0,0,579.56,253.85Z"/><path class="cls-5" d="M534.29,241.27a1.58,1.58,0,0,0-.12.15,18.93,18.93,0,0,1-1.49,1.61,32.09,32.09,0,0,1-8.73,5.76c-.44.21-.69.3-.69.3a.13.13,0,0,1,0,.08c0,.19-.11.39-.18.61-.25.83-.53,1.84-.76,3-2.47,13.24-2.12,12.26-3.23,17.86-23.34,11.84-57.68-10.88-58.48-14.56,3.45-13,3.45-13,6.63-25.68a143.42,143.42,0,0,0,3.3-25.6q0-.58.06-1.17c.12-2.92.18-5.85.15-8.7-.13-12.48,3.47-21.54,11.46-23.27,2.71-.59,11.42.22,14.52.82l2.44.49c4.34.92,7.67,1.8,7.67,1.8L526,183c1.8,1,3.41,2,4.83,2.9a40.09,40.09,0,0,1,3.32,2.36c8.69,6.83,6.89,12.15,4.77,22.22a76.27,76.27,0,0,0-1.23,8.63c-.07.9-.13,1.79-.2,2.68C536.92,230.28,537,237.8,534.29,241.27Z"/><path class="cls-6" d="M515.82,197.79a1.45,1.45,0,0,1-1.73,1.13,1.47,1.47,0,1,1,1.73-1.13Z"/><path class="cls-6" d="M515.11,204a1.47,1.47,0,0,1-2.87-.6,1.47,1.47,0,1,1,2.87.6Z"/><path class="cls-8" d="M505.3,174.37s-10.05-3.34-11.48,2.7,8.45,16.67,18.81,16.07C512.63,193.14,502.93,182.92,505.3,174.37Z"/><path class="cls-8" d="M525.64,182.85s11.17,4.62,9.19,11-13.46,6-17.91.5C516.92,194.32,522.79,192,525.64,182.85Z"/><path class="cls-17" d="M525.82,182l-2.17,7.12a7.34,7.34,0,0,1-13,2.12c-4.13-5.74-7.17-12.48-5.38-16.9Z"/><path class="cls-6" d="M523.26,249.09a.13.13,0,0,1,0,.08c0,.19-.11.39-.18.61a35.64,35.64,0,0,1-13.34-5.72,33.06,33.06,0,0,0-20.39-5.16.48.48,0,0,1-.29,0,.55.55,0,0,1-.34-.46.57.57,0,0,1,.49-.64,33.64,33.64,0,0,1,21.17,5.35A33.9,33.9,0,0,0,524,248.79C523.51,249,523.26,249.09,523.26,249.09Z"/><path class="cls-6" d="M516.89,215.6c-6.44-2.68-15.74-17.39-16.13-18a.57.57,0,1,1,1-.61c.1.15,9.5,15,15.6,17.56,5.85,2.44,9.8-3.4,9.84-3.46a.57.57,0,0,1,.79-.17.58.58,0,0,1,.17.8C528.08,211.78,523.6,218.4,516.89,215.6Z"/><path class="cls-6" d="M520.82,264.54a.68.68,0,0,1-.53-.72c.5-5.43,2.28-14.69,2.29-14.78a.68.68,0,0,1,.51-.53,19.51,19.51,0,0,0,10.63-7.61.67.67,0,1,1,1.13.73,20.48,20.48,0,0,1-11,8.07c-.35,1.86-1.76,9.53-2.2,14.24a.67.67,0,0,1-.73.61Z"/><path class="cls-18" d="M537.89,126.71a12.93,12.93,0,1,1,.46-2.18A11.93,11.93,0,0,1,537.89,126.71Z"/><path class="cls-8" d="M537.89,126.71a12.92,12.92,0,0,1-23.48,2.84c4.29-3.44,13.65-9.27,23.94-5A11.93,11.93,0,0,1,537.89,126.71Z"/><path class="cls-18" d="M553.07,147.47s.84,10.68-5.41,13.15l3-13.62Z"/><path class="cls-18" d="M550.05,135.51s-9.36-15.53-26.82-9.14c-17.77,6.5-22.82,33.38-10.08,40.06C513.15,166.43,540.76,152.52,550.05,135.51Z"/><path class="cls-20" d="M543.35,161.41s4.43-2.1,4.51,2.05-4.3,10.48-8.18,7.36Z"/><path class="cls-17" d="M528.72,175.87l-3.83,9.46s-9.08,5.81-19.41-10.74c4.23-1.86,7-7.76,7.54-11.88a20.18,20.18,0,0,1,2.2,2.73,11.13,11.13,0,0,0,.95,1.05C519.16,169.72,523.88,174.11,528.72,175.87Z"/><path class="cls-18" d="M528.72,175.87l-1.81,4.49c-3.62-2.72-9.86-8.2-11.69-14.92l.95,1.05C519.16,169.72,523.88,174.11,528.72,175.87Z"/><path class="cls-17" d="M538.35,176c-10.86,6.15-24.91-12.69-25.33-13.26v0c.17-.8.36-1.59.55-2.37A62.93,62.93,0,0,1,520.75,143,14.2,14.2,0,0,1,535,134c6.43.49,10.27,5.16,12.83,7.43,3.86,3.42,4.05,10.49.32,18.76C543.56,170.3,541.36,174.32,538.35,176Z"/><path class="cls-8" d="M535.59,169a2.66,2.66,0,0,1-1.41-4.74,3.2,3.2,0,0,1,3.52-.57c2.12,1,1.07,3.06.19,4.23a2.68,2.68,0,0,1-2.24,1.09Z"/><path class="cls-18" d="M538.63,148.64a1.73,1.73,0,0,0,.84-.67,1.15,1.15,0,0,0-.36-1.63c-1.34-1.15-3.65,2.18-7.37.74C531.74,147.08,532.63,150.94,538.63,148.64Z"/><path class="cls-18" d="M544.93,151.71a1.78,1.78,0,0,1,0-1.07c.15-.46.53-.92,1.49-.75,1.74.31.63,4.2,4.11,6.16C550.51,156.05,547,157.81,544.93,151.71Z"/><path class="cls-20" d="M533.05,158.38c-.35.77-2.2.67-4.15-.21s-3.23-2.22-2.89-3,2.21-.67,4.15.21S533.4,157.62,533.05,158.38Z"/><path class="cls-20" d="M546.78,166.23a7.81,7.81,0,0,1-.87-.34c-1.94-.88-3.24-2.22-2.89-3s2.21-.67,4.15.21c.26.12.51.25.75.38Z"/><path class="cls-18" d="M518.38,160c-.11.09-2.94,2.67-5.36,2.71h0v0c.17-.8.36-1.59.55-2.37A8.91,8.91,0,0,0,518.38,160Z"/><path class="cls-17" d="M519.76,151.87s-1.64-7.55-6.73-4.51c-4.19,2.5-3.72,14.2,2.78,13.21Z"/><path class="cls-8" d="M514.4,160a1.44,1.44,0,1,1-.72-1.9A1.44,1.44,0,0,1,514.4,160Z"/><path class="cls-18" d="M516,158.61a.48.48,0,0,1-.26-.58,7.88,7.88,0,0,0-1.55-7.72.48.48,0,0,1,.69-.66,8.9,8.9,0,0,1,1.77,8.68.48.48,0,0,1-.6.3Z"/><path class="cls-18" d="M513.17,154.16a.47.47,0,0,1,.07-.89c.24-.06,2.34-.58,3.49.34a.49.49,0,0,1,.07.67.48.48,0,0,1-.67.07c-.66-.53-2.13-.3-2.65-.16A.41.41,0,0,1,513.17,154.16Z"/><path class="cls-18" d="M535.6,154.46c-.47,1-1.34,1.69-1.92,1.42s-.68-1.33-.21-2.38,1.34-1.69,1.93-1.42S536.08,153.41,535.6,154.46Z"/><path class="cls-18" d="M546,159.18c-.48,1-1.34,1.69-1.93,1.42s-.68-1.33-.2-2.39,1.34-1.68,1.92-1.41S546.47,158.13,546,159.18Z"/><path class="cls-18" d="M522.44,137s3.37,7.86,6.38,7.66,1.25-6.73,1.25-6.73,6.43,8.48,10.37,8.48-.11-6.64-.11-6.64,3.87,8.74,7.73,10.07,2.27-5,2.27-5,.42,8.09,2.91,8.54S557,143.06,551,136.5,526,122,522.44,137Z"/><path class="cls-18" d="M527.13,140.76s-2.56,13.21-6.63,13c-4.82-.25-2.54-10.64,2.62-18Z"/><path class="cls-18" d="M539.5,161.06a4.59,4.59,0,0,1-1.78-1.39.48.48,0,1,1,.76-.58,3.66,3.66,0,0,0,1.59,1.18l.43-4.72a.48.48,0,0,1,.52-.43.47.47,0,0,1,.43.52l-.48,5.3a.51.51,0,0,1-.19.34.48.48,0,0,1-.37.09A4.57,4.57,0,0,1,539.5,161.06Z"/><path class="cls-17" d="M554.35,267.51l-4.14,14.73c-1.64.83-4,1.33-8,.57l5.2-15.48S550.47,267.25,554.35,267.51Z"/><path class="cls-5" d="M496.67,185.87l-.23.55-.32.78c-.21.53-.42,1.09-.63,1.65-.42,1.13-.82,2.29-1.19,3.47-.75,2.35-1.4,4.76-1.95,7.18a84.62,84.62,0,0,0-2.12,14.68c-.07,1.23-.1,2.45-.11,3.67s0,2.44.05,3.66.12,2.42.23,3.63.25,2.4.42,3.59.38,2.37.6,3.55.5,2.34.8,3.5.62,2.3,1,3.44c.18.57.38,1.13.58,1.69l.07.21,0,.09,0-.09c-.06-.12-.09-.2-.14-.28a.79.79,0,0,0-.15-.22,1.14,1.14,0,0,0,.23.33,8,8,0,0,0,.73.76,22.6,22.6,0,0,0,2.31,1.9,70.34,70.34,0,0,0,6.11,3.94c4.43,2.57,9.26,4.95,14.17,7.24s9.95,4.46,15,6.56c2.54,1,5.1,2.09,7.67,3.09l3.85,1.5,1.92.74,1.88.71-5.61,17.28-2.12-.62-2.08-.63-4.12-1.28c-2.74-.88-5.47-1.77-8.19-2.7-5.45-1.87-10.87-3.85-16.29-6s-10.81-4.54-16.26-7.37a85.73,85.73,0,0,1-8.28-4.88,47.74,47.74,0,0,1-4.33-3.29c-.75-.65-1.51-1.36-2.3-2.18a24.69,24.69,0,0,1-2.41-3,22,22,0,0,1-1.22-2c-.2-.4-.39-.79-.58-1.24l-.13-.33-.07-.16-.11-.28c-.3-.76-.59-1.51-.87-2.28-.56-1.52-1.06-3.06-1.53-4.61s-.89-3.11-1.27-4.69-.71-3.15-1-4.73a92.54,92.54,0,0,1-1.38-19.11,107.82,107.82,0,0,1,2.27-18.76c.66-3.07,1.44-6.11,2.37-9.13q.69-2.27,1.5-4.53c.28-.76.57-1.52.87-2.29l.49-1.18.26-.62.14-.33.2-.43Z"/><path class="cls-6" d="M484.64,245.79a.68.68,0,0,1-.38-1.23,68.57,68.57,0,0,1,9.15-5,.67.67,0,0,1,.89.34.67.67,0,0,1-.34.89,67.47,67.47,0,0,0-8.94,4.9A.64.64,0,0,1,484.64,245.79Z"/><path class="cls-6" d="M486.79,241.34a.67.67,0,0,1-.07-1.34c.16,0,3.8-.37,6.62-.35a.66.66,0,0,1,.66.68.67.67,0,0,1-.68.66c-2.73,0-6.43.35-6.46.35Z"/><path class="cls-6" d="M532.64,262.64a.75.75,0,0,1-.29-.06c-23.33-10.87-38.44-21.08-39.11-22a.5.5,0,0,1-.11-.26c-.3-1.49-7.12-36.79-2.65-49.61a.67.67,0,0,1,.85-.42.68.68,0,0,1,.42.86c-4.18,12,2.11,45.8,2.66,48.72,1.52,1.32,16.24,11.15,38.51,21.53a.66.66,0,0,1,.33.89A.67.67,0,0,1,532.64,262.64Z"/><path class="cls-6" d="M492.15,197.25a.71.71,0,0,1-.48-.2.68.68,0,0,1,0-1l2.91-3a.68.68,0,0,1,.95,0,.69.69,0,0,1,0,1l-2.91,3A.66.66,0,0,1,492.15,197.25Z"/><path class="cls-6" d="M531.66,281.76l-.21,0a.67.67,0,0,1-.43-.85L536.68,264a.67.67,0,0,1,.85-.42.68.68,0,0,1,.43.85L532.3,281.3A.67.67,0,0,1,531.66,281.76Z"/><path class="cls-6" d="M542.61,281a.57.57,0,0,1-.22,0l-9.26-3.28a.68.68,0,0,1-.41-.86.67.67,0,0,1,.86-.41l9.26,3.28a.67.67,0,0,1-.23,1.31Z"/><path class="cls-6" d="M541.26,273.63a1.56,1.56,0,1,1-1.79-1.27A1.55,1.55,0,0,1,541.26,273.63Z"/><path class="cls-8" d="M588.1,173.27h11.27l-1.87,18H590Zm.13,24.63c0-2.8,2.25-4.93,5.51-4.93s5.51,2.13,5.51,4.93-2.25,5-5.51,5S588.23,200.65,588.23,197.9Z"/><path class="cls-8" d="M614.32,182.2c0-1.29-1.25-2-2.8-2a4.92,4.92,0,0,0-4.34,2.84l-7.43-3.72c2.13-4,6.35-6.76,13-6.76s11.44,2.75,11.44,8c0,6.39-6.68,7.52-6.68,10.73h-8.6C608.93,186.25,614.32,184.75,614.32,182.2Zm-6.6,15.7c0-2.8,2.26-4.93,5.51-4.93s5.51,2.13,5.51,4.93-2.25,5-5.51,5S607.72,200.65,607.72,197.9Z"/></g></g></svg>